<?xml version="1.0" encoding="utf-8"?>
<!-- Generator: Adobe Illustrator 27.2.0, SVG Export Plug-In . SVG Version: 6.00 Build 0)  -->
<svg version="1.1" id="Layer_1" xmlns="http://www.w3.org/2000/svg" xmlns:xlink="http://www.w3.org/1999/xlink" x="0px" y="0px"
	 width="1791.9px" height="570px" viewBox="0 0 1791.9 570" style="enable-background:new 0 0 1791.9 570;" xml:space="preserve">
<style type="text/css">
	.st0{fill:#FFFFFF;}
	.st1{fill:none;}
	.st2{display:none;}
	.st3{display:inline;fill:#2DA7CA;}
</style>
<g>
	<path class="st0" d="M162.4,137.2V31.9l-2.1-16.6h96.2c16.7,0,29.3,3.3,37.6,9.9c8.4,6.6,12.5,17,12.5,31.1v39.6
		c0,14.4-4.1,24.8-12.4,31.4s-20.9,9.8-37.7,9.8L162.4,137.2L162.4,137.2z M202.8,108.6h47.5c10.6,0,16-4.9,16.2-14.7V58
		c0-4-1.2-7.4-3.5-10.3c-2.4-2.8-6.6-4.2-12.6-4.2h-47.6V108.6z"/>
	<path class="st0" d="M352.4,35.4c-14,0-20.9-5.9-20.9-17.8c0-6.6,1.8-11.2,5.3-13.8c3.5-2.5,8.7-3.8,15.6-3.8
		c7.3,0,12.7,1.3,16.1,3.8c3.4,2.6,5.1,7.1,5.1,13.8C373.5,29.5,366.5,35.4,352.4,35.4z M333.3,137.2V44.3H371v92.8L333.3,137.2
		L333.3,137.2z"/>
	<path class="st0" d="M398.4,137.2V44.3h29.4l7.9,4.1c6.4-4.1,14.8-6.2,25.3-6.2c6.9,0,13,0.7,18.2,2.2s9.5,3,12.7,4.7
		s5.3,2.8,6.1,3.5l-10.4,26.9c-1.4-1-4-2.3-7.8-3.9c-3.8-1.7-8.3-3.2-13.4-4.7s-10.5-2.2-16.2-2.2h-2.3c-3.9,0-6.8,0.7-8.9,2
		s-3.1,4.2-3.1,8.6v57.8L398.4,137.2L398.4,137.2z"/>
	<path class="st0" d="M544.3,137.2c-9.1,0-16.1-1.3-21-3.9c-4.9-2.6-8.3-6.2-10.1-10.9c-1.8-4.6-2.7-10-2.7-16.1V75
		c0-5.5,0.9-10.6,2.8-15.2c1.9-4.6,5.2-8.4,10.1-11.2c4.8-2.8,11.8-4.2,20.9-4.2h42.9c10.8,0,19,1.3,24.8,3.8
		c5.7,2.6,9.7,6.1,11.8,10.8c2.1,4.6,3.2,10,3.2,16.1v26.5h-36.3c-12.4,0-21.9-0.3-28.3-0.8c-6.4-0.6-11-0.9-13.6-1v3.1
		c-0.1,5.5,3.2,8.3,9.9,8.3h6.4c11.1,0,21.3-0.2,30.7-0.7c9.4-0.5,16.4-0.9,20.9-1.3l12.4,19.7c0,1.4-1.2,2.7-3.5,3.9
		c-2.4,1.2-6.5,2.3-12.3,3.2c-5.9,0.9-14.2,1.3-25,1.3L544.3,137.2L544.3,137.2z M548.9,81.6h39.8v-2.9c0-2.8-0.2-4.7-0.7-5.8
		c-0.5-1.1-2-1.8-4.5-2.1c-2.5-0.3-6.7-0.4-12.6-0.4h-12c-6.6,0-9.9,2.8-9.9,8.3L548.9,81.6L548.9,81.6z"/>
	<path class="st0" d="M681.7,137.2c-9.1,0-16.1-1.3-21-3.9c-4.9-2.6-8.3-6.2-10.1-10.9c-1.8-4.6-2.7-10-2.7-16.1V75
		c0-5.5,0.9-10.6,2.8-15.2c1.9-4.6,5.2-8.4,10.1-11.2c4.8-2.8,11.8-4.2,20.9-4.2h26.5c15.9,0,27.6,0.7,35,2.1
		c7.5,1.4,11.7,2.8,12.6,4.1l-6.2,22c-2.9-0.3-8.2-0.7-15.7-1.2c-7.6-0.6-16-0.8-25.1-0.8h-12.6c-3.6,0-6.1,0.7-7.7,2.1
		c-1.5,1.4-2.3,3.5-2.3,6.2v24c0,2.8,0.7,4.8,2.1,6.2c1.4,1.4,4,2.1,7.9,2.1h10.6c10.2,0,19-0.2,26.4-0.7s12.8-0.9,16.3-1.3
		l12.4,19.7c0,1.9-3.4,3.8-10.3,5.7c-6.8,1.9-17,2.8-30.6,2.8h-39.3V137.2z"/>
	<path class="st0" d="M812.5,137.2c-10.5,0-17.7-2.2-21.6-6.6c-3.9-4.4-5.8-11.1-5.8-19.9V70.5h-17V44.3h8.7c2.3,0,4.2-0.4,5.7-1.3
		c1.5-0.9,2.4-2.5,2.8-4.9l3.9-22.2h34v28.4h34.6v26.1h-34.6v32.1c0,3.5,0.8,5.7,2.5,6.8c1.7,1.1,4.1,1.7,7.5,1.7h20.7l4.1,24
		c-2.9,0.4-7.3,0.9-13.3,1.3c-5.9,0.5-12.4,0.7-19.5,0.7h-12.7V137.2z"/>
	<path class="st0" d="M926.4,137.2V31.9l-2.1-16.6h50.2l36.5,72.5l37.3-72.5h47.5v121.9h-39.6V67.4h-2.3l-8.7,22.4l-15.1,35h-37.8
		l-15.8-35L968,67.4h-2.1v69.8L926.4,137.2L926.4,137.2z"/>
	<path class="st0" d="M1155.6,137.2c-12.2,0-20.9-2.3-26.1-6.8c-5.3-4.6-7.9-12.2-7.9-22.8c0-9.8,2.7-16.9,8.2-21.3
		s14.1-6.6,25.8-6.6h6.4c7.7,0,15.1,0.3,22.2,0.8c7,0.6,13.1,1.1,18.2,1.7v-3.3c0-1.9-0.4-3.8-1.2-5.6c-0.8-1.8-3.7-2.7-8.7-2.7
		h-10.4c-15.1,0-26.7,0.2-34.8,0.7c-8.2,0.5-13.2,0.9-15.1,1.3l-2.3-22c0-1.4,2.4-2.5,7.3-3.4c4.8-0.9,11.5-1.6,19.9-2.1
		s18-0.7,28.8-0.7h20.7c9.1,0,16.1,1.3,20.9,4s8.2,6.3,9.9,10.9c1.8,4.6,2.7,9.8,2.7,15.7v62.2h-29.4l-8.1-4.1
		c-3.3,0.7-8.6,1.6-15.9,2.6c-7.3,1-15.6,1.6-25,1.6L1155.6,137.2L1155.6,137.2z M1167.7,112.7h28.6c3,0,4.8-0.3,5.4-0.8
		c0.6-0.6,0.8-2.3,0.8-5.2v-7.3h-34.8c-2.6,0-4.6,0.5-5.8,1.5c-1.2,1-1.9,2.8-1.9,5.6c0,2.6,0.6,4.3,1.9,5.1
		C1163.1,112.4,1165,112.7,1167.7,112.7z"/>
	<path class="st0" d="M1300.1,137.2c-10.5,0-17.7-2.2-21.6-6.6c-3.9-4.4-5.8-11.1-5.8-19.9V70.5h-17V44.3h8.7c2.3,0,4.2-0.4,5.7-1.3
		c1.5-0.9,2.4-2.5,2.8-4.9l3.9-22.2h34v28.4h34.6v26.1h-34.6v32.1c0,3.5,0.8,5.7,2.5,6.8c1.7,1.1,4.1,1.7,7.5,1.7h20.7l4.1,24
		c-2.9,0.4-7.3,0.9-13.3,1.3c-5.9,0.5-12.4,0.7-19.5,0.7h-12.7V137.2z"/>
	<path class="st0" d="M1394,137.2c-9.1,0-16.1-1.3-21-3.9c-4.9-2.6-8.3-6.2-10.1-10.9c-1.8-4.6-2.7-10-2.7-16.1V75
		c0-5.5,0.9-10.6,2.8-15.2s5.2-8.4,10.1-11.2c4.8-2.8,11.8-4.2,20.9-4.2h26.5c15.9,0,27.6,0.7,35,2.1c7.5,1.4,11.7,2.8,12.6,4.1
		l-6.2,22c-2.9-0.3-8.2-0.7-15.8-1.2c-7.6-0.6-16-0.8-25.1-0.8h-12.6c-3.6,0-6.1,0.7-7.7,2.1c-1.5,1.4-2.3,3.5-2.3,6.2v24
		c0,2.8,0.7,4.8,2.1,6.2c1.4,1.4,4,2.1,7.9,2.1h10.6c10.2,0,19-0.2,26.4-0.7s12.8-0.9,16.3-1.3l12.4,19.7c0,1.9-3.4,3.8-10.3,5.7
		c-6.8,1.9-17,2.8-30.6,2.8H1394V137.2z"/>
	<path class="st0" d="M1488.7,137.2V2.9h38.3v45.6c5.9-1.1,13-2.1,21.1-2.9c8.2-0.8,15.8-1.2,23-1.2h10.4c6.9,0,12.2,1,16,2.9
		c3.7,1.9,6.4,4.4,8,7.3c1.6,2.9,2.6,5.8,2.9,8.8c0.3,3,0.5,5.5,0.5,7.6v66.3H1571V78.7c0-5.5-3.3-8.3-9.9-8.3h-27.8
		c-2.6,0-4.3,0.2-5.1,0.7c-0.8,0.5-1.1,1.8-1.1,3.8v62.2h-38.4V137.2z"/>
</g>
<g>
	<path class="st0" d="M1237.8,324c-3.1-9.6-9.1-17.2-18.5-22.9s-23.5-8.3-42.4-8.3h-119.7c-18.9,0-33,2.7-42.4,8.3
		s-15.6,13.1-18.7,22.9s-4.8,20.4-4.8,32.6v65c0,12.7,1.5,23.7,4.6,33.5c3.1,9.8,9.4,17.2,18.7,22.6c9.4,5.4,23.7,8.1,42.6,8.1
		h119.7c18.9,0,33-2.7,42.4-8.1c9.4-5.4,15.6-12.9,18.5-22.6c2.9-9.6,4.6-20.8,4.6-33.5v-65.2C1242.3,344.4,1240.9,333.6,1237.8,324
		z M1133.5,318.2c0.6-0.2,1.5-0.4,2.1,0c4.4,1.5,8.7,3.1,13.1,4.8c0.4,0.2,0.8,0.4,1,0.8c0.6,1.2,1.2,2.7,1.9,3.9
		c1.2,2.7,2.7,5.6,3.9,8.3c0,0,0,0.2-0.2,0.2l-3.5-1.7c-3.9-1.9-8.1-3.7-12.1-5.6c-1.5-0.6-2.9-0.6-4.4,0c-6.6,3.1-13.1,6-19.7,9.4
		c-0.8,0.4-1.9,1.2-2.3,2.1c-1,2.3-2.3,4.6-3.3,6.9c-9.4,19.3-18.5,38.6-27.8,58c-0.4,0.6-0.6,1.5-1.2,2.3c-0.8-2.1-1.9-3.7-2.7-5.6
		c-1.7-3.7-3.5-7.5-5.2-11.2c-0.4-1-0.4-1.7,0-2.5c6.4-13.7,12.7-27.2,19.1-40.9c1.7-3.5,3.3-7.1,5-10.6c0.6-1.2,1.5-2.1,2.7-2.7
		c8.5-3.9,17-7.9,25.6-11.8C1128.1,320.5,1130.8,319.4,1133.5,318.2z M1097.9,388.4c2.3-4.8,4.6-9.6,7.1-14.5
		c10.2,4.8,20.2,9.6,30.3,14.1c-2.3,5-4.6,9.8-6.9,15C1118.3,398.2,1108.1,393.2,1097.9,388.4z M1124.7,411.1c-2.3,5-4.6,10-6.9,15
		c-10.4-4.8-20.8-9.6-31.2-14.5c2.5-5,4.8-10,7.1-15C1104.4,401.3,1114.6,406.1,1124.7,411.1z M1108.9,365.4
		c2.5-5.4,5.2-10.6,7.7-16.2c10,4.8,19.7,9.4,29.9,14.1c-2.5,5.4-5,10.8-7.5,16.2C1129.1,374.7,1119.1,370.1,1108.9,365.4z
		 M1084,324c0.2-0.4,0.8-1,1.2-1.2c4.4-1.7,8.7-3.3,13.3-4.8c0.4-0.2,0.8-0.2,1.2,0c2.9,1.2,5.8,2.7,8.9,4.2
		c-0.2,0.2-0.6,0.2-0.8,0.4c-2.5,1.2-4.8,2.3-7.1,3.3c-2.1,0.8-3.9,1.9-6,2.7c-1.2,0.4-2.1,1.5-2.5,2.5c-2.5,5.6-5.2,11-7.7,16.6
		c-1.7,3.7-3.5,7.3-5.2,11c-2.7,5.6-5.2,11.2-7.9,16.8c-0.6,1.5-1.2,2.7-1.9,4.2c-0.2,0.4-0.2,0.6-0.6,1c-0.2-0.6-0.4-0.8-0.6-1.2
		c-1.7-3.3-3.1-6.6-4.8-10c-0.4-0.6-0.2-1.2,0-1.9c5.8-12.3,11.4-24.5,17-36.6C1081.7,328.6,1082.8,326.3,1084,324z M1045.8,370.4
		c1-2.5,1.9-5,2.7-7.5c0.6-1.7,1.2-3.5,1.9-5.2c0.2-0.4,0.6-1,1-1.2c0.4-0.2,0.6-0.4,1-0.4c3.5-1.7,7.1-3.3,10.8-5
		c0.2,0,0.2,0,0.6-0.2c-0.2,0.4-0.4,0.8-0.4,1.2c-2.3,4.8-4.4,9.8-6.9,14.5c-0.8,1.7-0.8,2.9,0,4.6c5,10.8,10,21.4,15,32.2
		c1.7,3.3,3.1,6.9,4.8,10.2c0.2,0.4,0.2,0.8,0.6,1.5c-1.9-0.8-3.5-1.7-5.2-2.3c0,0,0,0-0.2,0c-2.7-1.2-5.6-2.5-8.3-3.9
		c-0.4-0.2-1-0.6-1.2-1.2c-5.4-11.4-10.6-22.9-16-34.1C1045.4,372,1045.4,371.2,1045.8,370.4z M1051.8,422.3
		c-0.8-0.4-1.2-0.8-1.5-1.7c-1.5-4.4-3.1-8.7-4.8-13.1c-0.2-0.4-0.2-0.8,0-1c1.2-2.9,2.7-5.8,4.2-8.9c0.2,0.6,0.4,0.8,0.6,1.2
		c1.9,4.2,3.9,8.3,5.8,12.7c0.6,1.2,1.5,2.1,2.7,2.7c4.4,2.1,8.7,4.2,13.1,6.2c8.1,3.7,16.2,7.5,24.3,11.2c3.7,1.7,7.5,3.5,11.2,5.2
		c0.2,0.2,0.6,0.2,1,0.6c-3.3,1.5-6.4,2.9-9.4,4.4c-2.1,1-3.7,1-5.8,0C1079.4,435,1065.5,428.7,1051.8,422.3z M1100,460.3
		c-0.4,0.2-1,0.2-1.7,0c-4.4-1.7-8.7-3.1-13.3-4.8c-0.4-0.2-0.8-0.4-1-0.6c-0.4-0.8-0.8-1.7-1.2-2.5c-1.5-3.3-3.1-6.6-4.6-10
		c0.6,0.2,0.8,0.4,1.2,0.4c5,2.3,10,4.6,15,7.1c1.2,0.6,2.3,0.6,3.5,0c6.6-3.1,13.3-6.2,19.9-9.4c1.2-0.6,1.9-1.7,2.5-2.9
		c0.8-2.1,1.9-4.2,2.7-6c2.1-4.6,4.2-8.9,6.2-13.5c7.3-15.8,14.5-31.8,21.6-47.6c0.2-0.2,0.2-0.6,0.6-1c2.7,5.6,5,11.2,7.9,16.6
		c1.2,2.5,1.2,4.6,0,7.1c-6,12.9-12.1,25.8-18.1,38.6c-1.9,3.9-3.5,7.7-5.4,11.4c-0.2,0.6-0.8,1-1.2,1.2c-10.6,5-21,9.8-31.6,14.8
		C1102.1,459.5,1101.1,459.9,1100,460.3z M1149.7,454.5c-0.2,0.4-0.6,0.8-1.2,1c-0.8,0.2-1.7,0.6-2.5,0.8c-3.5,1.2-7.1,2.7-10.6,3.9
		c-0.4,0.2-0.8,0.4-1.2,0.2c-0.6-0.2-1.5-0.6-2.1-0.8c-2.3-1-4.6-2.1-7.1-3.3c2.5-1.2,4.8-2.3,7.1-3.3c2.3-1,4.8-2.3,7.1-3.3
		c1-0.4,1.9-1.2,2.3-2.3c2.5-5.4,5.2-11,7.7-16.6c4.6-10,9.4-19.9,13.9-29.9c0.4-0.6,0.6-1.2,0.8-1.9c0.2-0.4,0.4-0.8,0.8-1.7
		c1.9,4.2,3.7,8.1,5.4,11.8c0.2,0.4,0,0.8,0,1.2c-5.2,11.2-10.4,22.4-15.6,33.7C1153,447.7,1151.3,451,1149.7,454.5z M1187.9,407.8
		c-1.5,4.4-3.1,8.5-4.6,12.9c-0.2,0.8-0.6,1.2-1.5,1.7c-3.7,1.7-7.3,3.3-11,5.2c-0.2,0.2-0.6,0.2-1.2,0.4c1.2-2.7,2.5-5.2,3.5-7.7
		c1.2-2.7,2.5-5.4,3.7-8.1c0.6-1.5,0.6-2.7,0-4.2c-4.8-10.2-9.4-20.4-14.1-30.5c-1.9-3.9-3.7-7.9-5.4-11.8c-0.2-0.4-0.4-0.8-0.6-1.5
		c1.5,0.6,2.5,1,3.7,1.7c0.8,0.4,1.7,0.8,2.5,1.2c2.5,1,5,2.3,7.3,3.3c0.6,0.4,1.2,1,1.5,1.5c5.4,11.4,10.8,22.9,16,34.3
		C1188.1,406.5,1188.1,407.1,1187.9,407.8z M1188.1,372c-1.2,2.9-2.7,5.8-4.2,9.1c-2.3-4.8-4.4-9.1-6.4-13.7
		c-0.6-1.5-1.5-2.3-2.9-2.9c-3.9-1.9-8.1-3.7-12.3-5.6c-8.3-3.9-16.8-7.9-25.1-11.6c-3.7-1.7-7.3-3.5-11-5.2
		c-0.4-0.2-0.8-0.4-1.2-0.6c1.9-1,3.7-1.7,5.6-2.5c2.1-1,3.9-1.9,6-2.7c0.4-0.2,1.2-0.2,1.7,0c14.5,6.6,29.1,13.5,43.6,20.4
		c0.8,0.4,1.2,0.8,1.7,1.7c1.5,4.4,3.1,8.5,4.6,12.9C1188.1,371.2,1188.3,371.6,1188.1,372z"/>
	<path class="st1" d="M1124.7,411.1c-2.3,5-4.6,10-6.9,15c-10.4-4.8-20.8-9.6-31.2-14.5c2.5-5,4.8-10,7.1-15
		C1104.4,401.3,1114.6,406.1,1124.7,411.1z"/>
	<path class="st1" d="M1135.3,388c-2.3,5-4.6,9.8-6.9,15c-10.2-4.8-20.4-9.6-30.5-14.5c2.3-4.8,4.6-9.6,7.1-14.5
		C1115,378.7,1125.2,383.2,1135.3,388z"/>
	<path class="st1" d="M1146.6,363.3c-2.5,5.4-5,10.8-7.5,16.2c-10-4.8-20.2-9.4-30.1-14.1c2.5-5.4,5.2-10.6,7.7-16.2
		C1126.6,353.9,1136.6,358.7,1146.6,363.3z"/>
	<path class="st1" d="M1159.4,392.8c-6,12.9-12.1,25.8-18.1,38.6c-1.9,3.9-3.5,7.7-5.4,11.4c-0.2,0.6-0.8,1-1.2,1.2
		c-10.6,5-21,9.8-31.6,14.8c-1,0.4-2.1,1-3.1,1.5c-0.4,0.2-1,0.2-1.7,0c-4.4-1.7-8.7-3.1-13.3-4.8c-0.4-0.2-0.8-0.4-1-0.6
		c-0.4-0.8-0.8-1.7-1.2-2.5c-1.5-3.3-3.1-6.6-4.6-10c0.6,0.2,0.8,0.4,1.2,0.4c5,2.3,10,4.6,15,7.1c1.2,0.6,2.3,0.6,3.5,0
		c6.6-3.1,13.3-6.2,19.9-9.4c1.2-0.6,1.9-1.7,2.5-2.9c0.8-2.1,1.9-4.2,2.7-6c2.1-4.6,4.2-8.9,6.2-13.5c7.3-15.8,14.5-31.8,21.6-47.6
		c0.2-0.2,0.2-0.6,0.6-1c2.7,5.6,5,11.2,7.9,16.6C1160.7,388.2,1160.5,390.3,1159.4,392.8z"/>
	<path class="st1" d="M1188.1,372c-1.2,2.9-2.7,5.8-4.2,9.1c-2.3-4.8-4.4-9.1-6.4-13.7c-0.6-1.5-1.5-2.3-2.9-2.9
		c-3.9-1.9-8.1-3.7-12.3-5.6c-8.3-3.9-16.8-7.9-25.1-11.6c-3.7-1.7-7.3-3.5-11-5.2c-0.4-0.2-0.8-0.4-1.2-0.6c1.9-1,3.7-1.7,5.6-2.5
		c2.1-1,3.9-1.9,6-2.7c0.4-0.2,1.2-0.2,1.7,0c14.5,6.6,29.1,13.5,43.6,20.4c0.8,0.4,1.2,0.8,1.7,1.7c1.5,4.4,3.1,8.5,4.6,12.9
		C1188.1,371.2,1188.3,371.6,1188.1,372z"/>
	<path class="st0" d="M0,485.7V232.4h83.1v96.4h133.8v-96.4h82.7v253.3h-82.7v-98.3H83.1v98.3H0z"/>
	<path class="st0" d="M403.5,274.2c-29.1,0-43.4-12.3-43.4-37c0-13.7,3.7-23.3,11-28.7s18.1-7.9,32.4-7.9c15.2,0,26.4,2.7,33.5,7.9
		c7.1,5.4,10.6,14.8,10.6,28.7C447.4,261.9,432.8,274.2,403.5,274.2z M363.8,485.7v-193h78.3v192.8h-78.3V485.7z"/>
	<path class="st0" d="M547.7,485.7c-19.3,0-32.8-1-40.9-3.1c-8.1-2.1-12.1-3.9-12.1-6l17.2-45.3c3.5,0.8,13.7,1.9,30.8,2.7
		c17,1,42,1.5,74.8,1.5h30.5c7.3,0,11.6-0.8,13.5-2.3c1.9-1.7,2.7-4.4,2.7-8.3c0-4.8-1-7.9-3.3-9.4c-2.1-1.2-6.4-1.9-13.1-1.9h-87.5
		c-21,0-37.2-3.9-48.6-11.8s-17.2-22-17.2-42.4v-8.5c0-10.6,1.5-20.4,4.4-29.1c2.9-8.7,9.1-15.8,18.5-21.2c9.6-5.4,23.9-7.9,43-7.9
		h127.4c17.2,0,29.5,1,36.6,3.1c7.3,2.1,10.8,3.9,10.8,6l-4.4,45.7c-4.6-0.8-16.2-1.9-34.7-2.7c-18.5-1-44.1-1.5-76.5-1.5h-30.5
		c-7.3,0-11.6,0.8-13.5,2.3c-1.9,1.7-2.7,4.2-2.7,7.9c0,3.7,0.8,6.4,2.7,7.9c1.9,1.7,6.4,2.3,13.5,2.3h89.1c22.4,0,38.9,5,49.5,14.5
		c10.6,9.8,16,23.5,16,40.9v8.1c0,10.4-1.2,19.9-3.9,28.7c-2.5,8.7-8.5,15.8-17.7,21.4c-9.1,5.4-23.9,8.1-43.8,8.1H547.7V485.7z"/>
	<path class="st0" d="M866.5,485.7c-21.8,0-36.8-4.6-44.9-13.7s-12.1-23.1-12.1-41.3v-83.5h-35.3v-54.4h18.1c4.8,0,8.7-0.8,11.8-2.7
		c3.1-1.9,5-5.2,5.8-10.2l8.1-46.1h70.6v59h71.9v54.2h-71.9v66.7c0,7.3,1.7,11.8,5.2,14.1c3.5,2.3,8.5,3.5,15.6,3.5h43l8.5,49.9
		c-6,0.8-15.2,1.9-27.6,2.7c-12.3,1-25.8,1.5-40.5,1.5h-26.4V485.7z"/>
	<path class="st0" d="M1051.4,356.4c-0.4,0.2-0.8,0.8-1,1.2c-0.6,1.7-1.2,3.5-1.9,5.2c1.2-2.5,2.5-4.8,3.9-7.1
		C1052,356,1051.8,356.2,1051.4,356.4z M1132,459.7c0.6,0.2,1.5,0.6,2.1,0.8c0.2,0.2,0.8,0,1.2-0.2c3.5-1.2,7.1-2.5,10.6-3.9
		C1141.6,457.8,1136.8,459.1,1132,459.7z"/>
	<path class="st1" d="M1170.2,410.5c-5.2,11.2-10.4,22.4-15.6,33.7c-1.7,3.5-3.3,6.9-4.8,10.4c-0.2,0.4-0.6,0.8-1.2,1
		c-0.8,0.2-1.7,0.6-2.5,0.8c-4.4,1.5-9.1,2.5-13.9,3.1c-2.3-1-4.6-2.1-7.1-3.3c2.5-1.2,4.8-2.3,7.1-3.3c2.3-1,4.8-2.3,7.1-3.3
		c1-0.4,1.9-1.2,2.3-2.3c2.5-5.4,5.2-11,7.7-16.6c4.6-10,9.4-19.9,13.9-29.9c0.4-0.6,0.6-1.2,0.8-1.9c0.2-0.4,0.4-0.8,0.8-1.7
		c1.9,4.2,3.7,8.1,5.4,11.8C1170.5,409.6,1170.2,410.3,1170.2,410.5z"/>
	<path class="st1" d="M1187.9,407.8c-1.5,4.4-3.1,8.5-4.6,12.9c-0.2,0.8-0.6,1.2-1.5,1.7c-3.7,1.7-7.3,3.3-11,5.2
		c-0.2,0.2-0.6,0.2-1.2,0.4c1.2-2.7,2.5-5.2,3.5-7.7c1.2-2.7,2.5-5.4,3.7-8.1c0.6-1.5,0.6-2.7,0-4.2c-4.8-10.2-9.4-20.4-14.1-30.5
		c-1.9-3.9-3.7-7.9-5.4-11.8c-0.2-0.4-0.4-0.8-0.6-1.5c1.5,0.6,2.5,1,3.7,1.7c0.8,0.4,1.7,0.8,2.5,1.2c2.5,1,5,2.3,7.3,3.3
		c0.6,0.4,1.2,1,1.5,1.5c5.4,11.4,10.8,22.9,16,34.3C1188.1,406.5,1188.1,407.1,1187.9,407.8z"/>
	<path class="st1" d="M1155.3,335.9c0,0,0,0.2-0.2,0.2l-3.5-1.7c-3.9-1.9-8.1-3.7-12.1-5.6c-1.5-0.6-2.9-0.6-4.4,0
		c-6.6,3.1-13.1,6-19.7,9.4c-0.8,0.4-1.9,1.2-2.3,2.1c-1,2.3-2.3,4.6-3.3,6.9c-9.4,19.3-18.5,38.6-27.8,58c-0.4,0.6-0.6,1.5-1.2,2.3
		c-0.8-2.1-1.9-3.7-2.7-5.6c-1.7-3.7-3.5-7.5-5.2-11.2c-0.4-1-0.4-1.7,0-2.5c6.4-13.7,12.7-27.2,19.1-40.9c1.7-3.5,3.3-7.1,5-10.6
		c0.6-1.2,1.5-2.1,2.7-2.7c8.5-3.9,17-7.9,25.6-11.8c2.7-1.2,5.2-2.5,7.9-3.7c0.6-0.2,1.5-0.4,2.1,0c4.4,1.5,8.7,3.1,13.1,4.8
		c0.4,0.2,0.8,0.4,1,0.8c0.6,1.2,1.2,2.7,1.9,3.9C1152.8,330.3,1154,333.2,1155.3,335.9z"/>
	<path class="st1" d="M1108.5,322.1c-0.2,0.2-0.6,0.2-0.8,0.4c-2.5,1.2-4.8,2.3-7.1,3.3c-2.1,0.8-3.9,1.9-6,2.7
		c-1.2,0.4-2.1,1.5-2.5,2.5c-2.5,5.6-5.2,11-7.7,16.6c-1.7,3.7-3.5,7.3-5.2,11c-2.7,5.6-5.2,11.2-7.9,16.8c-0.6,1.5-1.2,2.7-1.9,4.2
		c-0.2,0.4-0.2,0.6-0.6,1c-0.2-0.6-0.4-0.8-0.6-1.2c-1.7-3.3-3.1-6.6-4.8-10c-0.4-0.6-0.2-1.2,0-1.9c5.8-12.3,11.4-24.5,17-36.6
		c1-2.3,2.3-4.8,3.3-7.1c0.2-0.4,0.8-1,1.2-1.2c4.4-1.7,8.7-3.3,13.3-4.8c0.4-0.2,0.8-0.2,1.2,0
		C1102.5,319.2,1105.4,320.5,1108.5,322.1z"/>
	<path class="st1" d="M1076.7,414.6c-1.9-0.8-3.5-1.7-5.2-2.3c0,0,0,0-0.2,0c-2.7-1.2-5.6-2.5-8.3-3.9c-0.4-0.2-1-0.6-1.2-1.2
		c-5.4-11.4-10.6-22.9-16-34.1c-0.4-0.8-0.4-1.7-0.2-2.5c1-2.5,1.9-5,2.7-7.5c1.2-2.5,2.5-4.8,3.9-7.1c3.5-1.7,7.1-3.3,10.8-5
		c0.2,0,0.2,0,0.6-0.2c-0.2,0.4-0.4,0.8-0.4,1.2c-2.3,4.8-4.4,9.8-6.9,14.5c-0.8,1.7-0.8,2.9,0,4.6c5,10.8,10,21.4,15,32.2
		c1.7,3.3,3.1,6.9,4.8,10.2C1076.3,413.6,1076.3,414,1076.7,414.6z"/>
	<path class="st1" d="M1108.5,437.3c-3.3,1.5-6.4,2.9-9.4,4.4c-2.1,1-3.7,1-5.8,0c-13.7-6.6-27.6-12.9-41.6-19.3
		c-0.8-0.4-1.2-0.8-1.5-1.7c-1.5-4.4-3.1-8.7-4.8-13.1c-0.2-0.4-0.2-0.8,0-1c1.2-2.9,2.7-5.8,4.2-8.9c0.2,0.6,0.4,0.8,0.6,1.2
		c1.9,4.2,3.9,8.3,5.8,12.7c0.6,1.2,1.5,2.1,2.7,2.7c4.4,2.1,8.7,4.2,13.1,6.2c8.1,3.7,16.2,7.5,24.3,11.2c3.7,1.7,7.5,3.5,11.2,5.2
		C1107.9,436.8,1108.1,436.8,1108.5,437.3z"/>
	<path class="st0" d="M1289.7,485.7v-193h61.1l16.4,8.5c13.3-8.5,30.8-12.9,52.6-12.9c14.3,0,27,1.5,37.8,4.6
		c10.8,3.1,19.7,6.2,26.4,9.8c6.6,3.5,11,5.8,12.7,7.3l-21.6,55.9c-2.9-2.1-8.3-4.8-16.2-8.1c-7.9-3.5-17.2-6.6-27.8-9.8
		c-10.6-3.1-21.8-4.6-33.7-4.6h-4.8c-8.1,0-14.1,1.5-18.5,4.2c-4.4,2.7-6.4,8.7-6.4,17.9v120.1h-77.9V485.7z"/>
	<path class="st0" d="M1553.6,570c-15.8,0-30.1-1.5-43-4.6c-12.9-3.1-21.8-6-26.6-8.7l17.2-53c8.5,3.7,17.9,6.6,27.8,8.5
		c10,2.1,19.3,3.1,28.3,3.1h4.8c24.9,0,43-10,54.2-29.7h-26.2l-84.4-192.8h86.6l37,114.5l6.4,26.2h4.4l6.4-26.2l37.4-114.5h85.2
		l-6.9,26.2c-5.4,11.2-11.6,24.1-18.7,38.4c-7.1,14.5-14.3,29.5-21.8,45.1c-7.5,15.6-14.8,30.3-21.8,44.9
		c-7.1,14.3-13.3,27.2-18.7,38.2c-14.1,28.7-30.3,49.9-48.6,63.8c-18.3,13.7-40.7,20.6-67.1,20.6H1553.6z"/>
</g>
<g class="st2">
	<path class="st3" d="M1778,239.8c-2.9,6.2-5.8,12.4-8.7,18.6c-0.9,1.9-1.7,3.7-2.6,5.5c-0.1,0.3-0.4,0.5-0.6,0.6
		c-5.1,2.4-10.1,4.7-15.2,7.1c-0.5,0.2-1,0.5-1.5,0.7c-0.2,0.1-0.5,0.1-0.8,0c-2.1-0.8-4.2-1.5-6.4-2.3c-0.2-0.1-0.4-0.2-0.5-0.3
		c-0.2-0.4-0.4-0.8-0.6-1.2c-0.7-1.6-1.5-3.2-2.2-4.8c0.3,0.1,0.4,0.2,0.6,0.2c2.4,1.1,4.8,2.2,7.2,3.4c0.6,0.3,1.1,0.3,1.7,0
		c3.2-1.5,6.4-3,9.6-4.5c0.6-0.3,0.9-0.8,1.2-1.4c0.4-1,0.9-2,1.3-2.9c1-2.2,2-4.3,3-6.5c3.5-7.6,7-15.3,10.4-22.9
		c0.1-0.1,0.1-0.3,0.3-0.5c1.3,2.7,2.4,5.4,3.8,8C1778.6,237.6,1778.5,238.6,1778,239.8z"/>
	<path class="st3" d="M1776,212.4c0,0,0,0.1-0.1,0.1l-1.7-0.8c-1.9-0.9-3.9-1.8-5.8-2.7c-0.7-0.3-1.4-0.3-2.1,0
		c-3.2,1.5-6.3,2.9-9.5,4.5c-0.4,0.2-0.9,0.6-1.1,1c-0.5,1.1-1.1,2.2-1.6,3.3c-4.5,9.3-8.9,18.6-13.4,27.9c-0.2,0.3-0.3,0.7-0.6,1.1
		c-0.4-1-0.9-1.8-1.3-2.7c-0.8-1.8-1.7-3.6-2.5-5.4c-0.2-0.5-0.2-0.8,0-1.2c3.1-6.6,6.1-13.1,9.2-19.7c0.8-1.7,1.6-3.4,2.4-5.1
		c0.3-0.6,0.7-1,1.3-1.3c4.1-1.9,8.2-3.8,12.3-5.7c1.3-0.6,2.5-1.2,3.8-1.8c0.3-0.1,0.7-0.2,1,0c2.1,0.7,4.2,1.5,6.3,2.3
		c0.2,0.1,0.4,0.2,0.5,0.4c0.3,0.6,0.6,1.3,0.9,1.9C1774.8,209.7,1775.4,211.1,1776,212.4z"/>
	<path class="st3" d="M1753.5,261.2c-1.6,0.7-3.1,1.4-4.5,2.1c-1,0.5-1.8,0.5-2.8,0c-6.6-3.2-13.3-6.2-20-9.3
		c-0.4-0.2-0.6-0.4-0.7-0.8c-0.7-2.1-1.5-4.2-2.3-6.3c-0.1-0.2-0.1-0.4,0-0.5c0.6-1.4,1.3-2.8,2-4.3c0.1,0.3,0.2,0.4,0.3,0.6
		c0.9,2,1.9,4,2.8,6.1c0.3,0.6,0.7,1,1.3,1.3c2.1,1,4.2,2,6.3,3c3.9,1.8,7.8,3.6,11.7,5.4c1.8,0.8,3.6,1.7,5.4,2.5
		C1753.2,261,1753.3,261,1753.5,261.2z"/>
	<path class="st3" d="M1753.5,205.8c-0.1,0.1-0.3,0.1-0.4,0.2c-1.2,0.6-2.3,1.1-3.4,1.6c-1,0.4-1.9,0.9-2.9,1.3
		c-0.6,0.2-1,0.7-1.2,1.2c-1.2,2.7-2.5,5.3-3.7,8c-0.8,1.8-1.7,3.5-2.5,5.3c-1.3,2.7-2.5,5.4-3.8,8.1c-0.3,0.7-0.6,1.3-0.9,2
		c-0.1,0.2-0.1,0.3-0.3,0.5c-0.1-0.3-0.2-0.4-0.3-0.6c-0.8-1.6-1.5-3.2-2.3-4.8c-0.2-0.3-0.1-0.6,0-0.9c2.8-5.9,5.5-11.8,8.2-17.6
		c0.5-1.1,1.1-2.3,1.6-3.4c0.1-0.2,0.4-0.5,0.6-0.6c2.1-0.8,4.2-1.6,6.4-2.3c0.2-0.1,0.4-0.1,0.6,0
		C1750.6,204.4,1752,205,1753.5,205.8z"/>
	<path class="st3" d="M1791.8,229.8c-0.6,1.4-1.3,2.8-2,4.4c-1.1-2.3-2.1-4.4-3.1-6.6c-0.3-0.7-0.7-1.1-1.4-1.4
		c-1.9-0.9-3.9-1.8-5.9-2.7c-4-1.9-8.1-3.8-12.1-5.6c-1.8-0.8-3.5-1.7-5.3-2.5c-0.2-0.1-0.4-0.2-0.6-0.3c0.9-0.5,1.8-0.8,2.7-1.2
		c1-0.5,1.9-0.9,2.9-1.3c0.2-0.1,0.6-0.1,0.8,0c7,3.2,14,6.5,21,9.8c0.4,0.2,0.6,0.4,0.8,0.8c0.7,2.1,1.5,4.1,2.2,6.2
		C1791.8,229.4,1791.9,229.6,1791.8,229.8z"/>
	<path class="st3" d="M1783.2,248.3c-2.5,5.4-5,10.8-7.5,16.2c-0.8,1.7-1.6,3.3-2.3,5c-0.1,0.2-0.3,0.4-0.6,0.5
		c-0.4,0.1-0.8,0.3-1.2,0.4c-1.7,0.6-3.4,1.3-5.1,1.9c-0.2,0.1-0.4,0.2-0.6,0.1c-0.3-0.1-0.7-0.3-1-0.4c-1.1-0.5-2.2-1-3.4-1.6
		c1.2-0.6,2.3-1.1,3.4-1.6c1.1-0.5,2.3-1.1,3.4-1.6c0.5-0.2,0.9-0.6,1.1-1.1c1.2-2.6,2.5-5.3,3.7-8c2.2-4.8,4.5-9.6,6.7-14.4
		c0.2-0.3,0.3-0.6,0.4-0.9c0.1-0.2,0.2-0.4,0.4-0.8c0.9,2,1.8,3.9,2.6,5.7C1783.3,247.9,1783.2,248.2,1783.2,248.3z"/>
	<path class="st3" d="M1738.2,250.3c-0.9-0.4-1.7-0.8-2.5-1.1c0,0,0,0-0.1,0c-1.3-0.6-2.7-1.2-4-1.9c-0.2-0.1-0.5-0.3-0.6-0.6
		c-2.6-5.5-5.1-11-7.7-16.4c-0.2-0.4-0.2-0.8-0.1-1.2c0.5-1.2,0.9-2.4,1.3-3.6c0.3-0.8,0.6-1.7,0.9-2.5c0.1-0.2,0.3-0.5,0.5-0.6
		c0.2-0.1,0.3-0.2,0.5-0.2c1.7-0.8,3.4-1.6,5.2-2.4c0.1,0,0.1,0,0.3-0.1c-0.1,0.2-0.2,0.4-0.2,0.6c-1.1,2.3-2.1,4.7-3.3,7
		c-0.4,0.8-0.4,1.4,0,2.2c2.4,5.2,4.8,10.3,7.2,15.5c0.8,1.6,1.5,3.3,2.3,4.9C1738,249.8,1738,250,1738.2,250.3z"/>
	<path class="st3" d="M1791.7,247c-0.7,2.1-1.5,4.1-2.2,6.2c-0.1,0.4-0.3,0.6-0.7,0.8c-1.8,0.8-3.5,1.6-5.3,2.5
		c-0.1,0.1-0.3,0.1-0.6,0.2c0.6-1.3,1.2-2.5,1.7-3.7c0.6-1.3,1.2-2.6,1.8-3.9c0.3-0.7,0.3-1.3,0-2c-2.3-4.9-4.5-9.8-6.8-14.7
		c-0.9-1.9-1.8-3.8-2.6-5.7c-0.1-0.2-0.2-0.4-0.3-0.7c0.7,0.3,1.2,0.5,1.8,0.8c0.4,0.2,0.8,0.4,1.2,0.6c1.2,0.5,2.4,1.1,3.5,1.6
		c0.3,0.2,0.6,0.5,0.7,0.7c2.6,5.5,5.2,11,7.7,16.5C1791.8,246.4,1791.8,246.7,1791.7,247z"/>
	<path class="st3" d="M1771.8,225.6c-1.2,2.6-2.4,5.2-3.6,7.8c-4.8-2.3-9.7-4.5-14.5-6.8c1.2-2.6,2.5-5.1,3.7-7.8
		C1762.2,221.1,1767,223.4,1771.8,225.6z"/>
	<path class="st3" d="M1761.3,248.6c-1.1,2.4-2.2,4.8-3.3,7.2c-5-2.3-10-4.6-15-7c1.2-2.4,2.3-4.8,3.4-7.2
		C1751.5,243.9,1756.4,246.2,1761.3,248.6z"/>
	<path class="st3" d="M1766.4,237.5c-1.1,2.4-2.2,4.7-3.3,7.2c-4.9-2.3-9.8-4.6-14.7-7c1.1-2.3,2.2-4.6,3.4-7
		C1756.6,233,1761.5,235.2,1766.4,237.5z"/>
</g>
</svg>
