<?xml version="1.0" encoding="utf-8"?>
<!-- Generator: Adobe Illustrator 27.2.0, SVG Export Plug-In . SVG Version: 6.00 Build 0)  -->
<svg version="1.1" id="Layer_1" xmlns="http://www.w3.org/2000/svg" xmlns:xlink="http://www.w3.org/1999/xlink" x="0px" y="0px"
	 width="5026.5px" height="369.4px" viewBox="0 0 5026.5 369.4" style="enable-background:new 0 0 5026.5 369.4;"
	 xml:space="preserve">
<style type="text/css">
	.st0{fill:#FFFFFF;}
	.st1{fill:none;}
</style>
<g>
	<path class="st0" d="M4.4,284.8V66.2L0,31.8h199.7c34.7,0,60.8,6.8,78,20.5c17.4,13.7,25.9,35.3,25.9,64.6v82.2
		c0,29.9-8.5,51.5-25.7,65.2c-17.2,13.7-43.4,20.3-78.3,20.3L4.4,284.8L4.4,284.8z M88.2,225.4h98.6c22,0,33.2-10.2,33.6-30.5v-74.5
		c0-8.3-2.5-15.4-7.3-21.4c-5-5.8-13.7-8.7-26.2-8.7H88.2L88.2,225.4L88.2,225.4z"/>
	<path class="st0" d="M398.7,73.5c-29.1,0-43.4-12.2-43.4-36.9c0-13.7,3.7-23.2,11-28.6c7.3-5.2,18.1-7.9,32.4-7.9
		c15.2,0,26.4,2.7,33.4,7.9c7.1,5.4,10.6,14.7,10.6,28.6C442.5,61.2,428,73.5,398.7,73.5z M359.1,284.8V92h78.3v192.6L359.1,284.8
		L359.1,284.8z"/>
	<path class="st0" d="M494.2,284.8V92h61l16.4,8.5c13.3-8.5,30.7-12.9,52.5-12.9c14.3,0,27,1.5,37.8,4.6c10.8,3.1,19.7,6.2,26.4,9.8
		c6.6,3.5,11,5.8,12.7,7.3L679.4,165c-2.9-2.1-8.3-4.8-16.2-8.1c-7.9-3.5-17.2-6.6-27.8-9.8c-10.6-3.1-21.8-4.6-33.6-4.6H597
		c-8.1,0-14.1,1.5-18.5,4.2c-4.4,2.7-6.4,8.7-6.4,17.9v120L494.2,284.8L494.2,284.8z"/>
	<path class="st0" d="M797.1,284.8c-18.9,0-33.4-2.7-43.6-8.1c-10.2-5.4-17.2-12.9-21-22.6c-3.7-9.5-5.6-20.8-5.6-33.4v-65
		c0-11.4,1.9-22,5.8-31.6c3.9-9.5,10.8-17.4,21-23.2c10-5.8,24.5-8.7,43.4-8.7h89c22.4,0,39.4,2.7,51.5,7.9
		c11.8,5.4,20.1,12.7,24.5,22.4c4.4,9.5,6.6,20.8,6.6,33.4v55h-75.3c-25.7,0-45.5-0.6-58.7-1.7c-13.3-1.2-22.8-1.9-28.2-2.1v6.4
		c-0.2,11.4,6.6,17.2,20.5,17.2h13.3c23,0,44.2-0.4,63.7-1.5c19.5-1,34-1.9,43.4-2.7l25.7,40.9c0,2.9-2.5,5.6-7.3,8.1
		c-5,2.5-13.5,4.8-25.5,6.6c-12.2,1.9-29.5,2.7-51.9,2.7L797.1,284.8L797.1,284.8z M806.6,169.4h82.6v-6c0-5.8-0.4-9.8-1.5-12
		s-4.2-3.7-9.3-4.4c-5.2-0.6-13.9-0.8-26.2-0.8h-24.9c-13.7,0-20.5,5.8-20.5,17.2L806.6,169.4L806.6,169.4z"/>
	<path class="st0" d="M1082.3,284.8c-18.9,0-33.4-2.7-43.6-8.1c-10.2-5.4-17.2-12.9-21-22.6c-3.7-9.5-5.6-20.8-5.6-33.4v-65
		c0-11.4,1.9-22,5.8-31.6c3.9-9.5,10.8-17.4,21-23.2c10-5.8,24.5-8.7,43.4-8.7h55c33,0,57.3,1.5,72.6,4.4
		c15.6,2.9,24.3,5.8,26.2,8.5l-12.9,45.7c-6-0.6-17-1.5-32.6-2.5c-15.8-1.2-33.2-1.7-52.1-1.7h-26.2c-7.5,0-12.7,1.5-16,4.4
		c-3.1,2.9-4.8,7.3-4.8,12.9v49.8c0,5.8,1.5,10,4.4,12.9c2.9,2.9,8.3,4.4,16.4,4.4h22c21.2,0,39.4-0.4,54.8-1.5
		c15.4-1,26.6-1.9,33.8-2.7l25.7,40.9c0,3.9-7.1,7.9-21.4,11.8c-14.1,3.9-35.3,5.8-63.5,5.8h-81.6L1082.3,284.8L1082.3,284.8z"/>
	<path class="st0" d="M1353.8,284.8c-21.8,0-36.7-4.6-44.8-13.7c-8.1-9.1-12-23-12-41.3v-83.4h-35.3V92h18.1c4.8,0,8.7-0.8,11.8-2.7
		c3.1-1.9,5-5.2,5.8-10.2l8.1-46.1h70.6V92h71.8v54.2H1376v66.6c0,7.3,1.7,11.8,5.2,14.1c3.5,2.3,8.5,3.5,15.6,3.5h43l8.5,49.8
		c-6,0.8-15.2,1.9-27.6,2.7c-12.2,1-25.7,1.5-40.5,1.5h-26.4L1353.8,284.8L1353.8,284.8z"/>
	<path class="st0" d="M1640.2,284.8V66.2l-4.4-34.5h104.2l75.8,150.5l77.4-150.5h98.6v253h-82.2V139.9h-4.8l-18.1,46.5l-31.3,72.6
		H1777l-32.8-72.6l-17.6-46.5h-4.4v144.9L1640.2,284.8L1640.2,284.8z"/>
	<path class="st0" d="M2116,284.8c-25.3,0-43.4-4.8-54.2-14.1c-11-9.5-16.4-25.3-16.4-47.3c0-20.3,5.6-35.1,17-44.2
		c11.4-9.1,29.3-13.7,53.6-13.7h13.3c16,0,31.3,0.6,46.1,1.7c14.5,1.2,27.2,2.3,37.8,3.5v-6.8c0-3.9-0.8-7.9-2.5-11.6
		c-1.7-3.7-7.7-5.6-18.1-5.6H2171c-31.3,0-55.4,0.4-72.2,1.5c-17,1-27.4,1.9-31.3,2.7l-4.8-45.7c0-2.9,5-5.2,15.2-7.1
		c10-1.9,23.9-3.3,41.3-4.4c17.4-1,37.4-1.5,59.8-1.5h43c18.9,0,33.4,2.7,43.4,8.3s17,13.1,20.5,22.6c3.7,9.5,5.6,20.3,5.6,32.6
		v129.1h-61l-16.8-8.5c-6.8,1.5-17.9,3.3-33,5.4c-15.2,2.1-32.4,3.3-51.9,3.3L2116,284.8L2116,284.8z M2141.1,233.9h59.4
		c6.2,0,10-0.6,11.2-1.7c1.2-1.2,1.7-4.8,1.7-10.8v-15.2h-72.2c-5.4,0-9.5,1-12,3.1c-2.5,2.1-3.9,5.8-3.9,11.6
		c0,5.4,1.2,8.9,3.9,10.6C2131.5,233.3,2135.5,233.9,2141.1,233.9z"/>
	<path class="st0" d="M2415.9,284.8c-21.8,0-36.7-4.6-44.8-13.7s-12-23-12-41.3v-83.4h-35.3V92h18.1c4.8,0,8.7-0.8,11.8-2.7
		c3.1-1.9,5-5.2,5.8-10.2l8.1-46.1h70.6V92h71.8v54.2h-71.8v66.6c0,7.3,1.7,11.8,5.2,14.1c3.5,2.3,8.5,3.5,15.6,3.5h43l8.5,49.8
		c-6,0.8-15.2,1.9-27.6,2.7c-12.2,1-25.7,1.5-40.5,1.5h-26.4L2415.9,284.8L2415.9,284.8z"/>
	<path class="st0" d="M2610.8,284.8c-18.9,0-33.4-2.7-43.6-8.1s-17.2-12.9-21-22.6c-3.7-9.5-5.6-20.8-5.6-33.4v-65
		c0-11.4,1.9-22,5.8-31.6c3.9-9.5,10.8-17.4,21-23.2c10-5.8,24.5-8.7,43.4-8.7h55c33,0,57.3,1.5,72.6,4.4
		c15.6,2.9,24.3,5.8,26.2,8.5l-12.9,45.7c-6-0.6-17-1.5-32.8-2.5c-15.8-1.2-33.2-1.7-52.1-1.7h-26.2c-7.5,0-12.7,1.5-16,4.4
		c-3.1,2.9-4.8,7.3-4.8,12.9v49.8c0,5.8,1.5,10,4.4,12.9c2.9,2.9,8.3,4.4,16.4,4.4h22c21.2,0,39.4-0.4,54.8-1.5
		c15.4-1,26.6-1.9,33.8-2.7l25.7,40.9c0,3.9-7.1,7.9-21.4,11.8c-14.1,3.9-35.3,5.8-63.5,5.8h-81.4V284.8z"/>
	<path class="st0" d="M2807.4,284.8V6h79.5v94.7c12.2-2.3,27-4.4,43.8-6c17-1.7,32.8-2.5,47.7-2.5h21.6c14.3,0,25.3,2.1,33.2,6
		c7.7,3.9,13.3,9.1,16.6,15.2c3.3,6,5.4,12,6,18.3c0.6,6.2,1,11.4,1,15.8V285h-78.7V163.4c0-11.4-6.8-17.2-20.5-17.2H2900
		c-5.4,0-8.9,0.4-10.6,1.5c-1.7,1-2.3,3.7-2.3,7.9v129.1h-79.7V284.8z"/>
</g>
<g>
	<path class="st0" d="M4495.2,123.4c-3.1-9.6-9.1-17.2-18.5-22.9s-23.5-8.3-42.4-8.3h-119.7c-18.9,0-33,2.7-42.4,8.3
		s-15.6,13.1-18.7,22.9c-3.1,9.8-4.8,20.4-4.8,32.6v65c0,12.7,1.5,23.7,4.6,33.5c3.1,9.8,9.4,17.2,18.7,22.6
		c9.4,5.4,23.7,8.1,42.6,8.1h119.7c18.9,0,33-2.7,42.4-8.1s15.6-12.9,18.5-22.6c2.9-9.6,4.6-20.8,4.6-33.5v-65.2
		C4499.7,143.8,4498.3,133,4495.2,123.4z M4390.9,117.6c0.6-0.2,1.5-0.4,2.1,0c4.4,1.5,8.7,3.1,13.1,4.8c0.4,0.2,0.8,0.4,1,0.8
		c0.6,1.2,1.2,2.7,1.9,3.9c1.2,2.7,2.7,5.6,3.9,8.3c0,0,0,0.2-0.2,0.2l-3.5-1.7c-3.9-1.9-8.1-3.7-12.1-5.6c-1.5-0.6-2.9-0.6-4.4,0
		c-6.6,3.1-13.1,6-19.7,9.4c-0.8,0.4-1.9,1.2-2.3,2.1c-1,2.3-2.3,4.6-3.3,6.9c-9.4,19.3-18.5,38.6-27.8,58c-0.4,0.6-0.6,1.5-1.2,2.3
		c-0.8-2.1-1.9-3.7-2.7-5.6c-1.7-3.7-3.5-7.5-5.2-11.2c-0.4-1-0.4-1.7,0-2.5c6.4-13.7,12.7-27.2,19.1-40.9c1.7-3.5,3.3-7.1,5-10.6
		c0.6-1.2,1.5-2.1,2.7-2.7c8.5-3.9,17-7.9,25.6-11.8C4385.5,119.9,4388.2,118.8,4390.9,117.6z M4355.3,187.8
		c2.3-4.8,4.6-9.6,7.1-14.5c10.2,4.8,20.2,9.6,30.3,14.1c-2.3,5-4.6,9.8-6.9,15C4375.7,197.6,4365.5,192.6,4355.3,187.8z
		 M4382.1,210.5c-2.3,5-4.6,10-6.9,15c-10.4-4.8-20.8-9.6-31.2-14.5c2.5-5,4.8-10,7.1-15C4361.8,200.7,4372,205.5,4382.1,210.5z
		 M4366.3,164.8c2.5-5.4,5.2-10.6,7.7-16.2c10,4.8,19.7,9.4,29.9,14.1c-2.5,5.4-5,10.8-7.5,16.2
		C4386.5,174.1,4376.5,169.5,4366.3,164.8z M4341.4,123.4c0.2-0.4,0.8-1,1.2-1.2c4.4-1.7,8.7-3.3,13.3-4.8c0.4-0.2,0.8-0.2,1.2,0
		c2.9,1.2,5.8,2.7,8.9,4.2c-0.2,0.2-0.6,0.2-0.8,0.4c-2.5,1.2-4.8,2.3-7.1,3.3c-2.1,0.8-3.9,1.9-6,2.7c-1.2,0.4-2.1,1.5-2.5,2.5
		c-2.5,5.6-5.2,11-7.7,16.6c-1.7,3.7-3.5,7.3-5.2,11c-2.7,5.6-5.2,11.2-7.9,16.8c-0.6,1.5-1.2,2.7-1.9,4.2c-0.2,0.4-0.2,0.6-0.6,1
		c-0.2-0.6-0.4-0.8-0.6-1.2c-1.7-3.3-3.1-6.6-4.8-10c-0.4-0.6-0.2-1.2,0-1.9c5.8-12.3,11.4-24.5,17-36.6
		C4339.1,128,4340.2,125.7,4341.4,123.4z M4303.2,169.8c1-2.5,1.9-5,2.7-7.5c0.6-1.7,1.2-3.5,1.9-5.2c0.2-0.4,0.6-1,1-1.2
		s0.6-0.4,1-0.4c3.5-1.7,7.1-3.3,10.8-5c0.2,0,0.2,0,0.6-0.2c-0.2,0.4-0.4,0.8-0.4,1.2c-2.3,4.8-4.4,9.8-6.9,14.5
		c-0.8,1.7-0.8,2.9,0,4.6c5,10.8,10,21.4,15,32.2c1.7,3.3,3.1,6.9,4.8,10.2c0.2,0.4,0.2,0.8,0.6,1.5c-1.9-0.8-3.5-1.7-5.2-2.3
		c0,0,0,0-0.2,0c-2.7-1.2-5.6-2.5-8.3-3.9c-0.4-0.2-1-0.6-1.2-1.2c-5.4-11.4-10.6-22.9-16-34.1
		C4302.8,171.4,4302.8,170.6,4303.2,169.8z M4309.2,221.7c-0.8-0.4-1.2-0.8-1.5-1.7c-1.5-4.4-3.1-8.7-4.8-13.1c-0.2-0.4-0.2-0.8,0-1
		c1.2-2.9,2.7-5.8,4.2-8.9c0.2,0.6,0.4,0.8,0.6,1.2c1.9,4.2,3.9,8.3,5.8,12.7c0.6,1.2,1.5,2.1,2.7,2.7c4.4,2.1,8.7,4.2,13.1,6.2
		c8.1,3.7,16.2,7.5,24.3,11.2c3.7,1.7,7.5,3.5,11.2,5.2c0.2,0.2,0.6,0.2,1,0.6c-3.3,1.5-6.4,2.9-9.4,4.4c-2.1,1-3.7,1-5.8,0
		C4336.8,234.4,4322.9,228.1,4309.2,221.7z M4357.4,259.7c-0.4,0.2-1,0.2-1.7,0c-4.4-1.7-8.7-3.1-13.3-4.8c-0.4-0.2-0.8-0.4-1-0.6
		c-0.4-0.8-0.8-1.7-1.2-2.5c-1.5-3.3-3.1-6.6-4.6-10c0.6,0.2,0.8,0.4,1.2,0.4c5,2.3,10,4.6,15,7.1c1.2,0.6,2.3,0.6,3.5,0
		c6.6-3.1,13.3-6.2,19.9-9.4c1.2-0.6,1.9-1.7,2.5-2.9c0.8-2.1,1.9-4.2,2.7-6c2.1-4.6,4.2-8.9,6.2-13.5c7.3-15.8,14.5-31.8,21.6-47.6
		c0.2-0.2,0.2-0.6,0.6-1c2.7,5.6,5,11.2,7.9,16.6c1.2,2.5,1.2,4.6,0,7.1c-6,12.9-12.1,25.8-18.1,38.6c-1.9,3.9-3.5,7.7-5.4,11.4
		c-0.2,0.6-0.8,1-1.2,1.2c-10.6,5-21,9.8-31.6,14.8C4359.5,258.9,4358.5,259.3,4357.4,259.7z M4407.1,253.9c-0.2,0.4-0.6,0.8-1.2,1
		c-0.8,0.2-1.7,0.6-2.5,0.8c-3.5,1.2-7.1,2.7-10.6,3.9c-0.4,0.2-0.8,0.4-1.2,0.2c-0.6-0.2-1.5-0.6-2.1-0.8c-2.3-1-4.6-2.1-7.1-3.3
		c2.5-1.2,4.8-2.3,7.1-3.3c2.3-1,4.8-2.3,7.1-3.3c1-0.4,1.9-1.2,2.3-2.3c2.5-5.4,5.2-11,7.7-16.6c4.6-10,9.4-19.9,13.9-29.9
		c0.4-0.6,0.6-1.2,0.8-1.9c0.2-0.4,0.4-0.8,0.8-1.7c1.9,4.2,3.7,8.1,5.4,11.8c0.2,0.4,0,0.8,0,1.2c-5.2,11.2-10.4,22.4-15.6,33.7
		C4410.4,247.1,4408.7,250.4,4407.1,253.9z M4445.3,207.2c-1.5,4.4-3.1,8.5-4.6,12.9c-0.2,0.8-0.6,1.2-1.5,1.7
		c-3.7,1.7-7.3,3.3-11,5.2c-0.2,0.2-0.6,0.2-1.2,0.4c1.2-2.7,2.5-5.2,3.5-7.7c1.2-2.7,2.5-5.4,3.7-8.1c0.6-1.5,0.6-2.7,0-4.2
		c-4.8-10.2-9.4-20.4-14.1-30.5c-1.9-3.9-3.7-7.9-5.4-11.8c-0.2-0.4-0.4-0.8-0.6-1.5c1.5,0.6,2.5,1,3.7,1.7c0.8,0.4,1.7,0.8,2.5,1.2
		c2.5,1,5,2.3,7.3,3.3c0.6,0.4,1.2,1,1.5,1.5c5.4,11.4,10.8,22.9,16,34.3C4445.5,205.9,4445.5,206.5,4445.3,207.2z M4445.5,171.4
		c-1.2,2.9-2.7,5.8-4.2,9.1c-2.3-4.8-4.4-9.1-6.4-13.7c-0.6-1.5-1.5-2.3-2.9-2.9c-3.9-1.9-8.1-3.7-12.3-5.6
		c-8.3-3.9-16.8-7.9-25.1-11.6c-3.7-1.7-7.3-3.5-11-5.2c-0.4-0.2-0.8-0.4-1.2-0.6c1.9-1,3.7-1.7,5.6-2.5c2.1-1,3.9-1.9,6-2.7
		c0.4-0.2,1.2-0.2,1.7,0c14.5,6.6,29.1,13.5,43.6,20.4c0.8,0.4,1.2,0.8,1.7,1.7c1.5,4.4,3.1,8.5,4.6,12.9
		C4445.5,170.6,4445.7,171,4445.5,171.4z"/>
	<path class="st1" d="M4382.1,210.5c-2.3,5-4.6,10-6.9,15c-10.4-4.8-20.8-9.6-31.2-14.5c2.5-5,4.8-10,7.1-15
		C4361.8,200.7,4372,205.5,4382.1,210.5z"/>
	<path class="st1" d="M4392.7,187.4c-2.3,5-4.6,9.8-6.9,15c-10.2-4.8-20.4-9.6-30.5-14.5c2.3-4.8,4.6-9.6,7.1-14.5
		C4372.4,178.1,4382.6,182.6,4392.7,187.4z"/>
	<path class="st1" d="M4404,162.7c-2.5,5.4-5,10.8-7.5,16.2c-10-4.8-20.2-9.4-30.1-14.1c2.5-5.4,5.2-10.6,7.7-16.2
		C4384,153.3,4394,158.1,4404,162.7z"/>
	<path class="st1" d="M4416.8,192.2c-6,12.9-12.1,25.8-18.1,38.6c-1.9,3.9-3.5,7.7-5.4,11.4c-0.2,0.6-0.8,1-1.2,1.2
		c-10.6,5-21,9.8-31.6,14.8c-1,0.4-2.1,1-3.1,1.5c-0.4,0.2-1,0.2-1.7,0c-4.4-1.7-8.7-3.1-13.3-4.8c-0.4-0.2-0.8-0.4-1-0.6
		c-0.4-0.8-0.8-1.7-1.2-2.5c-1.5-3.3-3.1-6.6-4.6-10c0.6,0.2,0.8,0.4,1.2,0.4c5,2.3,10,4.6,15,7.1c1.2,0.6,2.3,0.6,3.5,0
		c6.6-3.1,13.3-6.2,19.9-9.4c1.2-0.6,1.9-1.7,2.5-2.9c0.8-2.1,1.9-4.2,2.7-6c2.1-4.6,4.2-8.9,6.2-13.5c7.3-15.8,14.5-31.8,21.6-47.6
		c0.2-0.2,0.2-0.6,0.6-1c2.7,5.6,5,11.2,7.9,16.6C4418.1,187.6,4417.9,189.7,4416.8,192.2z"/>
	<path class="st1" d="M4445.5,171.4c-1.2,2.9-2.7,5.8-4.2,9.1c-2.3-4.8-4.4-9.1-6.4-13.7c-0.6-1.5-1.5-2.3-2.9-2.9
		c-3.9-1.9-8.1-3.7-12.3-5.6c-8.3-3.9-16.8-7.9-25.1-11.6c-3.7-1.7-7.3-3.5-11-5.2c-0.4-0.2-0.8-0.4-1.2-0.6c1.9-1,3.7-1.7,5.6-2.5
		c2.1-1,3.9-1.9,6-2.7c0.4-0.2,1.2-0.2,1.7,0c14.5,6.6,29.1,13.5,43.6,20.4c0.8,0.4,1.2,0.8,1.7,1.7c1.5,4.4,3.1,8.5,4.6,12.9
		C4445.5,170.6,4445.7,171,4445.5,171.4z"/>
	<path class="st0" d="M3257.4,285.1V31.8h83.1v96.4h133.8V31.8h82.7v253.3h-82.7v-98.3h-133.8v98.3H3257.4z"/>
	<path class="st0" d="M3660.9,73.6c-29.1,0-43.4-12.3-43.4-37c0-13.7,3.7-23.3,11-28.7s18.1-7.9,32.4-7.9c15.2,0,26.4,2.7,33.5,7.9
		c7.1,5.4,10.6,14.8,10.6,28.7C3704.8,61.3,3690.2,73.6,3660.9,73.6z M3621.2,285.1v-193h78.3v192.8h-78.3V285.1z"/>
	<path class="st0" d="M3805.1,285.1c-19.3,0-32.8-1-40.9-3.1c-8.1-2.1-12.1-3.9-12.1-6l17.2-45.3c3.5,0.8,13.7,1.9,30.8,2.7
		c17,1,42,1.5,74.8,1.5h30.5c7.3,0,11.6-0.8,13.5-2.3c1.9-1.7,2.7-4.4,2.7-8.3c0-4.8-1-7.9-3.3-9.4c-2.1-1.2-6.4-1.9-13.1-1.9h-87.5
		c-21,0-37.2-3.9-48.6-11.8c-11.4-7.9-17.2-22-17.2-42.4v-8.5c0-10.6,1.5-20.4,4.4-29.1c2.9-8.7,9.1-15.8,18.5-21.2
		c9.6-5.4,23.9-7.9,43-7.9h127.4c17.2,0,29.5,1,36.6,3.1c7.3,2.1,10.8,3.9,10.8,6l-4.4,45.7c-4.6-0.8-16.2-1.9-34.7-2.7
		c-18.5-1-44.1-1.5-76.5-1.5h-30.5c-7.3,0-11.6,0.8-13.5,2.3c-1.9,1.7-2.7,4.2-2.7,7.9c0,3.7,0.8,6.4,2.7,7.9
		c1.9,1.7,6.4,2.3,13.5,2.3h89.1c22.4,0,38.9,5,49.5,14.5c10.6,9.8,16,23.5,16,40.9v8.1c0,10.4-1.2,19.9-3.9,28.7
		c-2.5,8.7-8.5,15.8-17.7,21.4c-9.1,5.4-23.9,8.1-43.8,8.1h-130.6V285.1z"/>
	<path class="st0" d="M4123.9,285.1c-21.8,0-36.8-4.6-44.9-13.7s-12.1-23.1-12.1-41.3v-83.5h-35.3V92.2h18.1c4.8,0,8.7-0.8,11.8-2.7
		c3.1-1.9,5-5.2,5.8-10.2l8.1-46.1h70.6v59h71.9v54.2H4146v66.7c0,7.3,1.7,11.8,5.2,14.1c3.5,2.3,8.5,3.5,15.6,3.5h43l8.5,49.9
		c-6,0.8-15.2,1.9-27.6,2.7c-12.3,1-25.8,1.5-40.5,1.5h-26.4v0.3H4123.9z"/>
	<path class="st0" d="M4308.8,155.8c-0.4,0.2-0.8,0.8-1,1.2c-0.6,1.7-1.2,3.5-1.9,5.2c1.2-2.5,2.5-4.8,3.9-7.1
		C4309.4,155.4,4309.2,155.6,4308.8,155.8z M4389.4,259.1c0.6,0.2,1.5,0.6,2.1,0.8c0.2,0.2,0.8,0,1.2-0.2c3.5-1.2,7.1-2.5,10.6-3.9
		C4399,257.2,4394.2,258.5,4389.4,259.1z"/>
	<path class="st1" d="M4427.6,209.9c-5.2,11.2-10.4,22.4-15.6,33.7c-1.7,3.5-3.3,6.9-4.8,10.4c-0.2,0.4-0.6,0.8-1.2,1
		c-0.8,0.2-1.7,0.6-2.5,0.8c-4.4,1.5-9.1,2.5-13.9,3.1c-2.3-1-4.6-2.1-7.1-3.3c2.5-1.2,4.8-2.3,7.1-3.3c2.3-1,4.8-2.3,7.1-3.3
		c1-0.4,1.9-1.2,2.3-2.3c2.5-5.4,5.2-11,7.7-16.6c4.6-10,9.4-19.9,13.9-29.9c0.4-0.6,0.6-1.2,0.8-1.9c0.2-0.4,0.4-0.8,0.8-1.7
		c1.9,4.2,3.7,8.1,5.4,11.8C4427.9,209,4427.6,209.7,4427.6,209.9z"/>
	<path class="st1" d="M4445.3,207.2c-1.5,4.4-3.1,8.5-4.6,12.9c-0.2,0.8-0.6,1.2-1.5,1.7c-3.7,1.7-7.3,3.3-11,5.2
		c-0.2,0.2-0.6,0.2-1.2,0.4c1.2-2.7,2.5-5.2,3.5-7.7c1.2-2.7,2.5-5.4,3.7-8.1c0.6-1.5,0.6-2.7,0-4.2c-4.8-10.2-9.4-20.4-14.1-30.5
		c-1.9-3.9-3.7-7.9-5.4-11.8c-0.2-0.4-0.4-0.8-0.6-1.5c1.5,0.6,2.5,1,3.7,1.7c0.8,0.4,1.7,0.8,2.5,1.2c2.5,1,5,2.3,7.3,3.3
		c0.6,0.4,1.2,1,1.5,1.5c5.4,11.4,10.8,22.9,16,34.3C4445.5,205.9,4445.5,206.5,4445.3,207.2z"/>
	<path class="st1" d="M4412.7,135.3c0,0,0,0.2-0.2,0.2l-3.5-1.7c-3.9-1.9-8.1-3.7-12.1-5.6c-1.5-0.6-2.9-0.6-4.4,0
		c-6.6,3.1-13.1,6-19.7,9.4c-0.8,0.4-1.9,1.2-2.3,2.1c-1,2.3-2.3,4.6-3.3,6.9c-9.4,19.3-18.5,38.6-27.8,58c-0.4,0.6-0.6,1.5-1.2,2.3
		c-0.8-2.1-1.9-3.7-2.7-5.6c-1.7-3.7-3.5-7.5-5.2-11.2c-0.4-1-0.4-1.7,0-2.5c6.4-13.7,12.7-27.2,19.1-40.9c1.7-3.5,3.3-7.1,5-10.6
		c0.6-1.2,1.5-2.1,2.7-2.7c8.5-3.9,17-7.9,25.6-11.8c2.7-1.2,5.2-2.5,7.9-3.7c0.6-0.2,1.5-0.4,2.1,0c4.4,1.5,8.7,3.1,13.1,4.8
		c0.4,0.2,0.8,0.4,1,0.8c0.6,1.2,1.2,2.7,1.9,3.9C4410.2,129.7,4411.4,132.6,4412.7,135.3z"/>
	<path class="st1" d="M4365.9,121.5c-0.2,0.2-0.6,0.2-0.8,0.4c-2.5,1.2-4.8,2.3-7.1,3.3c-2.1,0.8-3.9,1.9-6,2.7
		c-1.2,0.4-2.1,1.5-2.5,2.5c-2.5,5.6-5.2,11-7.7,16.6c-1.7,3.7-3.5,7.3-5.2,11c-2.7,5.6-5.2,11.2-7.9,16.8c-0.6,1.5-1.2,2.7-1.9,4.2
		c-0.2,0.4-0.2,0.6-0.6,1c-0.2-0.6-0.4-0.8-0.6-1.2c-1.7-3.3-3.1-6.6-4.8-10c-0.4-0.6-0.2-1.2,0-1.9c5.8-12.3,11.4-24.5,17-36.6
		c1-2.3,2.3-4.8,3.3-7.1c0.2-0.4,0.8-1,1.2-1.2c4.4-1.7,8.7-3.3,13.3-4.8c0.4-0.2,0.8-0.2,1.2,0
		C4359.9,118.6,4362.8,119.9,4365.9,121.5z"/>
	<path class="st1" d="M4334.1,214c-1.9-0.8-3.5-1.7-5.2-2.3c0,0,0,0-0.2,0c-2.7-1.2-5.6-2.5-8.3-3.9c-0.4-0.2-1-0.6-1.2-1.2
		c-5.4-11.4-10.6-22.9-16-34.1c-0.4-0.8-0.4-1.7-0.2-2.5c1-2.5,1.9-5,2.7-7.5c1.2-2.5,2.5-4.8,3.9-7.1c3.5-1.7,7.1-3.3,10.8-5
		c0.2,0,0.2,0,0.6-0.2c-0.2,0.4-0.4,0.8-0.4,1.2c-2.3,4.8-4.4,9.8-6.9,14.5c-0.8,1.7-0.8,2.9,0,4.6c5,10.8,10,21.4,15,32.2
		c1.7,3.3,3.1,6.9,4.8,10.2C4333.7,213,4333.7,213.4,4334.1,214z"/>
	<path class="st1" d="M4365.9,236.7c-3.3,1.5-6.4,2.9-9.4,4.4c-2.1,1-3.7,1-5.8,0c-13.7-6.6-27.6-12.9-41.6-19.3
		c-0.8-0.4-1.2-0.8-1.5-1.7c-1.5-4.4-3.1-8.7-4.8-13.1c-0.2-0.4-0.2-0.8,0-1c1.2-2.9,2.7-5.8,4.2-8.9c0.2,0.6,0.4,0.8,0.6,1.2
		c1.9,4.2,3.9,8.3,5.8,12.7c0.6,1.2,1.5,2.1,2.7,2.7c4.4,2.1,8.7,4.2,13.1,6.2c8.1,3.7,16.2,7.5,24.3,11.2c3.7,1.7,7.5,3.5,11.2,5.2
		C4365.3,236.2,4365.5,236.2,4365.9,236.7z"/>
	<path class="st0" d="M4547.1,285.1v-193h61.1l16.4,8.5c13.3-8.5,30.8-12.9,52.6-12.9c14.3,0,27,1.5,37.8,4.6
		c10.8,3.1,19.7,6.2,26.4,9.8c6.6,3.5,11,5.8,12.7,7.3l-21.6,55.9c-2.9-2.1-8.3-4.8-16.2-8.1c-7.9-3.5-17.2-6.6-27.8-9.8
		c-10.6-3.1-21.8-4.6-33.7-4.6h-4.8c-8.1,0-14.1,1.5-18.5,4.2c-4.4,2.7-6.4,8.7-6.4,17.9V285h-77.9v0.1H4547.1z"/>
	<path class="st0" d="M4811,369.4c-15.8,0-30.1-1.5-43-4.6c-12.9-3.1-21.8-6-26.6-8.7l17.2-53c8.5,3.7,17.9,6.6,27.8,8.5
		c10,2.1,19.3,3.1,28.3,3.1h4.8c24.9,0,43-10,54.2-29.7h-26.2l-84.4-192.8h86.6l37,114.5l6.4,26.2h4.4l6.4-26.2l37.4-114.5h85.2
		l-6.9,26.2c-5.4,11.2-11.6,24.1-18.7,38.4c-7.1,14.5-14.3,29.5-21.8,45.1s-14.8,30.3-21.8,44.9c-7.1,14.3-13.3,27.2-18.7,38.2
		c-14.1,28.7-30.3,49.9-48.6,63.8c-18.3,13.7-40.7,20.6-67.1,20.6H4811z"/>
</g>
</svg>
