<?xml version="1.0" encoding="utf-8"?>
<!-- Generator: Adobe Illustrator 27.2.0, SVG Export Plug-In . SVG Version: 6.00 Build 0)  -->
<svg version="1.1" id="Layer_1" xmlns="http://www.w3.org/2000/svg" xmlns:xlink="http://www.w3.org/1999/xlink" x="0px" y="0px"
	 width="2373.4px" height="177.8px" viewBox="0 0 2373.4 177.8" style="enable-background:new 0 0 2373.4 177.8;"
	 xml:space="preserve">
<style type="text/css">
	.st0{fill:#FFFFFF;}
	.st1{fill:none;}
	.st2{display:none;}
	.st3{display:inline;fill:#2DA7CA;}
</style>
<g>
	<path class="st0" d="M2117.8,59.4c-1.5-4.6-4.4-8.3-8.9-11c-4.5-2.7-11.3-4-20.4-4h-57.6c-9.1,0-15.9,1.3-20.4,4
		c-4.5,2.7-7.5,6.3-9,11s-2.3,9.8-2.3,15.7v31.3c0,6.1,0.7,11.4,2.2,16.1s4.5,8.3,9,10.9s11.4,3.9,20.5,3.9h57.6
		c9.1,0,15.9-1.3,20.4-3.9s7.5-6.2,8.9-10.9c1.4-4.6,2.2-10,2.2-16.1V75C2120,69.2,2119.3,64,2117.8,59.4z M2067.6,56.6
		c0.3-0.1,0.7-0.2,1,0c2.1,0.7,4.2,1.5,6.3,2.3c0.2,0.1,0.4,0.2,0.5,0.4c0.3,0.6,0.6,1.3,0.9,1.9c0.6,1.3,1.3,2.7,1.9,4
		c0,0,0,0.1-0.1,0.1l-1.7-0.8c-1.9-0.9-3.9-1.8-5.8-2.7c-0.7-0.3-1.4-0.3-2.1,0c-3.2,1.5-6.3,2.9-9.5,4.5c-0.4,0.2-0.9,0.6-1.1,1
		c-0.5,1.1-1.1,2.2-1.6,3.3c-4.5,9.3-8.9,18.6-13.4,27.9c-0.2,0.3-0.3,0.7-0.6,1.1c-0.4-1-0.9-1.8-1.3-2.7c-0.8-1.8-1.7-3.6-2.5-5.4
		c-0.2-0.5-0.2-0.8,0-1.2c3.1-6.6,6.1-13.1,9.2-19.7c0.8-1.7,1.6-3.4,2.4-5.1c0.3-0.6,0.7-1,1.3-1.3c4.1-1.9,8.2-3.8,12.3-5.7
		C2065,57.7,2066.3,57.2,2067.6,56.6z M2050.5,90.4c1.1-2.3,2.2-4.6,3.4-7c4.9,2.3,9.7,4.6,14.6,6.8c-1.1,2.4-2.2,4.7-3.3,7.2
		C2060.3,95.1,2055.4,92.7,2050.5,90.4z M2063.4,101.3c-1.1,2.4-2.2,4.8-3.3,7.2c-5-2.3-10-4.6-15-7c1.2-2.4,2.3-4.8,3.4-7.2
		C2053.6,96.6,2058.5,98.9,2063.4,101.3z M2055.8,79.3c1.2-2.6,2.5-5.1,3.7-7.8c4.8,2.3,9.5,4.5,14.4,6.8c-1.2,2.6-2.4,5.2-3.6,7.8
		C2065.5,83.8,2060.7,81.6,2055.8,79.3z M2043.8,59.4c0.1-0.2,0.4-0.5,0.6-0.6c2.1-0.8,4.2-1.6,6.4-2.3c0.2-0.1,0.4-0.1,0.6,0
		c1.4,0.6,2.8,1.3,4.3,2c-0.1,0.1-0.3,0.1-0.4,0.2c-1.2,0.6-2.3,1.1-3.4,1.6c-1,0.4-1.9,0.9-2.9,1.3c-0.6,0.2-1,0.7-1.2,1.2
		c-1.2,2.7-2.5,5.3-3.7,8c-0.8,1.8-1.7,3.5-2.5,5.3c-1.3,2.7-2.5,5.4-3.8,8.1c-0.3,0.7-0.6,1.3-0.9,2c-0.1,0.2-0.1,0.3-0.3,0.5
		c-0.1-0.3-0.2-0.4-0.3-0.6c-0.8-1.6-1.5-3.2-2.3-4.8c-0.2-0.3-0.1-0.6,0-0.9c2.8-5.9,5.5-11.8,8.2-17.6
		C2042.7,61.6,2043.2,60.5,2043.8,59.4z M2025.4,81.7c0.5-1.2,0.9-2.4,1.3-3.6c0.3-0.8,0.6-1.7,0.9-2.5c0.1-0.2,0.3-0.5,0.5-0.6
		c0.2-0.1,0.3-0.2,0.5-0.2c1.7-0.8,3.4-1.6,5.2-2.4c0.1,0,0.1,0,0.3-0.1c-0.1,0.2-0.2,0.4-0.2,0.6c-1.1,2.3-2.1,4.7-3.3,7
		c-0.4,0.8-0.4,1.4,0,2.2c2.4,5.2,4.8,10.3,7.2,15.5c0.8,1.6,1.5,3.3,2.3,4.9c0.1,0.2,0.1,0.4,0.3,0.7c-0.9-0.4-1.7-0.8-2.5-1.1
		c0,0,0,0-0.1,0c-1.3-0.6-2.7-1.2-4-1.9c-0.2-0.1-0.5-0.3-0.6-0.6c-2.6-5.5-5.1-11-7.7-16.4C2025.2,82.5,2025.2,82.1,2025.4,81.7z
		 M2028.3,106.7c-0.4-0.2-0.6-0.4-0.7-0.8c-0.7-2.1-1.5-4.2-2.3-6.3c-0.1-0.2-0.1-0.4,0-0.5c0.6-1.4,1.3-2.8,2-4.3
		c0.1,0.3,0.2,0.4,0.3,0.6c0.9,2,1.9,4,2.8,6.1c0.3,0.6,0.7,1,1.3,1.3c2.1,1,4.2,2,6.3,3c3.9,1.8,7.8,3.6,11.7,5.4
		c1.8,0.8,3.6,1.7,5.4,2.5c0.1,0.1,0.3,0.1,0.5,0.3c-1.6,0.7-3.1,1.4-4.5,2.1c-1,0.5-1.8,0.5-2.8,0
		C2041.6,112.8,2034.9,109.8,2028.3,106.7z M2051.5,125c-0.2,0.1-0.5,0.1-0.8,0c-2.1-0.8-4.2-1.5-6.4-2.3c-0.2-0.1-0.4-0.2-0.5-0.3
		c-0.2-0.4-0.4-0.8-0.6-1.2c-0.7-1.6-1.5-3.2-2.2-4.8c0.3,0.1,0.4,0.2,0.6,0.2c2.4,1.1,4.8,2.2,7.2,3.4c0.6,0.3,1.1,0.3,1.7,0
		c3.2-1.5,6.4-3,9.6-4.5c0.6-0.3,0.9-0.8,1.2-1.4c0.4-1,0.9-2,1.3-2.9c1-2.2,2-4.3,3-6.5c3.5-7.6,7-15.3,10.4-22.9
		c0.1-0.1,0.1-0.3,0.3-0.5c1.3,2.7,2.4,5.4,3.8,8c0.6,1.2,0.6,2.2,0,3.4c-2.9,6.2-5.8,12.4-8.7,18.6c-0.9,1.9-1.7,3.7-2.6,5.5
		c-0.1,0.3-0.4,0.5-0.6,0.6c-5.1,2.4-10.1,4.7-15.2,7.1C2052.5,124.6,2052,124.8,2051.5,125z M2075.4,122.2
		c-0.1,0.2-0.3,0.4-0.6,0.5c-0.4,0.1-0.8,0.3-1.2,0.4c-1.7,0.6-3.4,1.3-5.1,1.9c-0.2,0.1-0.4,0.2-0.6,0.1c-0.3-0.1-0.7-0.3-1-0.4
		c-1.1-0.5-2.2-1-3.4-1.6c1.2-0.6,2.3-1.1,3.4-1.6c1.1-0.5,2.3-1.1,3.4-1.6c0.5-0.2,0.9-0.6,1.1-1.1c1.2-2.6,2.5-5.3,3.7-8
		c2.2-4.8,4.5-9.6,6.7-14.4c0.2-0.3,0.3-0.6,0.4-0.9c0.1-0.2,0.2-0.4,0.4-0.8c0.9,2,1.8,3.9,2.6,5.7c0.1,0.2,0,0.4,0,0.6
		c-2.5,5.4-5,10.8-7.5,16.2C2077,118.9,2076.2,120.5,2075.4,122.2z M2093.8,99.7c-0.7,2.1-1.5,4.1-2.2,6.2c-0.1,0.4-0.3,0.6-0.7,0.8
		c-1.8,0.8-3.5,1.6-5.3,2.5c-0.1,0.1-0.3,0.1-0.6,0.2c0.6-1.3,1.2-2.5,1.7-3.7c0.6-1.3,1.2-2.6,1.8-3.9c0.3-0.7,0.3-1.3,0-2
		c-2.3-4.9-4.5-9.8-6.8-14.7c-0.9-1.9-1.8-3.8-2.6-5.7c-0.1-0.2-0.2-0.4-0.3-0.7c0.7,0.3,1.2,0.5,1.8,0.8c0.4,0.2,0.8,0.4,1.2,0.6
		c1.2,0.5,2.4,1.1,3.5,1.6c0.3,0.2,0.6,0.5,0.7,0.7c2.6,5.5,5.2,11,7.7,16.5C2093.9,99.1,2093.9,99.4,2093.8,99.7z M2093.9,82.5
		c-0.6,1.4-1.3,2.8-2,4.4c-1.1-2.3-2.1-4.4-3.1-6.6c-0.3-0.7-0.7-1.1-1.4-1.4c-1.9-0.9-3.9-1.8-5.9-2.7c-4-1.9-8.1-3.8-12.1-5.6
		c-1.8-0.8-3.5-1.7-5.3-2.5c-0.2-0.1-0.4-0.2-0.6-0.3c0.9-0.5,1.8-0.8,2.7-1.2c1-0.5,1.9-0.9,2.9-1.3c0.2-0.1,0.6-0.1,0.8,0
		c7,3.2,14,6.5,21,9.8c0.4,0.2,0.6,0.4,0.8,0.8c0.7,2.1,1.5,4.1,2.2,6.2C2093.9,82.1,2094,82.3,2093.9,82.5z"/>
	<path class="st1" d="M2063.4,101.3c-1.1,2.4-2.2,4.8-3.3,7.2c-5-2.3-10-4.6-15-7c1.2-2.4,2.3-4.8,3.4-7.2
		C2053.6,96.6,2058.5,98.9,2063.4,101.3z"/>
	<path class="st1" d="M2068.5,90.2c-1.1,2.4-2.2,4.7-3.3,7.2c-4.9-2.3-9.8-4.6-14.7-7c1.1-2.3,2.2-4.6,3.4-7
		C2058.7,85.7,2063.6,87.9,2068.5,90.2z"/>
	<path class="st1" d="M2073.9,78.3c-1.2,2.6-2.4,5.2-3.6,7.8c-4.8-2.3-9.7-4.5-14.5-6.8c1.2-2.6,2.5-5.1,3.7-7.8
		C2064.3,73.8,2069.1,76.1,2073.9,78.3z"/>
	<path class="st1" d="M2080.1,92.5c-2.9,6.2-5.8,12.4-8.7,18.6c-0.9,1.9-1.7,3.7-2.6,5.5c-0.1,0.3-0.4,0.5-0.6,0.6
		c-5.1,2.4-10.1,4.7-15.2,7.1c-0.5,0.2-1,0.5-1.5,0.7c-0.2,0.1-0.5,0.1-0.8,0c-2.1-0.8-4.2-1.5-6.4-2.3c-0.2-0.1-0.4-0.2-0.5-0.3
		c-0.2-0.4-0.4-0.8-0.6-1.2c-0.7-1.6-1.5-3.2-2.2-4.8c0.3,0.1,0.4,0.2,0.6,0.2c2.4,1.1,4.8,2.2,7.2,3.4c0.6,0.3,1.1,0.3,1.7,0
		c3.2-1.5,6.4-3,9.6-4.5c0.6-0.3,0.9-0.8,1.2-1.4c0.4-1,0.9-2,1.3-2.9c1-2.2,2-4.3,3-6.5c3.5-7.6,7-15.3,10.4-22.9
		c0.1-0.1,0.1-0.3,0.3-0.5c1.3,2.7,2.4,5.4,3.8,8C2080.7,90.3,2080.6,91.3,2080.1,92.5z"/>
	<path class="st1" d="M2093.9,82.5c-0.6,1.4-1.3,2.8-2,4.4c-1.1-2.3-2.1-4.4-3.1-6.6c-0.3-0.7-0.7-1.1-1.4-1.4
		c-1.9-0.9-3.9-1.8-5.9-2.7c-4-1.9-8.1-3.8-12.1-5.6c-1.8-0.8-3.5-1.7-5.3-2.5c-0.2-0.1-0.4-0.2-0.6-0.3c0.9-0.5,1.8-0.8,2.7-1.2
		c1-0.5,1.9-0.9,2.9-1.3c0.2-0.1,0.6-0.1,0.8,0c7,3.2,14,6.5,21,9.8c0.4,0.2,0.6,0.4,0.8,0.8c0.7,2.1,1.5,4.1,2.2,6.2
		C2093.9,82.1,2094,82.3,2093.9,82.5z"/>
	<g>
		<path class="st0" d="M2.1,137.2V31.9L0,15.3h96.2c16.7,0,29.3,3.3,37.6,9.9c8.4,6.6,12.5,17,12.5,31.1v39.6
			c0,14.4-4.1,24.8-12.4,31.4c-8.3,6.6-20.9,9.8-37.7,9.8H2.1z M42.5,108.6h47.5c10.6,0,16-4.9,16.2-14.7V58c0-4-1.2-7.4-3.5-10.3
			c-2.4-2.8-6.6-4.2-12.6-4.2H42.5V108.6z"/>
		<path class="st0" d="M192.1,35.4c-14,0-20.9-5.9-20.9-17.8c0-6.6,1.8-11.2,5.3-13.8C180,1.3,185.2,0,192.1,0
			c7.3,0,12.7,1.3,16.1,3.8c3.4,2.6,5.1,7.1,5.1,13.8C213.2,29.5,206.2,35.4,192.1,35.4z M173,137.2V44.3h37.7v92.8H173z"/>
		<path class="st0" d="M238.1,137.2V44.3h29.4l7.9,4.1c6.4-4.1,14.8-6.2,25.3-6.2c6.9,0,13,0.7,18.2,2.2c5.2,1.5,9.5,3,12.7,4.7
			c3.2,1.7,5.3,2.8,6.1,3.5l-10.4,26.9c-1.4-1-4-2.3-7.8-3.9c-3.8-1.7-8.3-3.2-13.4-4.7c-5.1-1.5-10.5-2.2-16.2-2.2h-2.3
			c-3.9,0-6.8,0.7-8.9,2c-2.1,1.3-3.1,4.2-3.1,8.6v57.8H238.1z"/>
		<path class="st0" d="M384,137.2c-9.1,0-16.1-1.3-21-3.9c-4.9-2.6-8.3-6.2-10.1-10.9c-1.8-4.6-2.7-10-2.7-16.1V75
			c0-5.5,0.9-10.6,2.8-15.2c1.9-4.6,5.2-8.4,10.1-11.2c4.8-2.8,11.8-4.2,20.9-4.2h42.9c10.8,0,19,1.3,24.8,3.8
			c5.7,2.6,9.7,6.1,11.8,10.8c2.1,4.6,3.2,10,3.2,16.1v26.5h-36.3c-12.4,0-21.9-0.3-28.3-0.8c-6.4-0.6-11-0.9-13.6-1v3.1
			c-0.1,5.5,3.2,8.3,9.9,8.3h6.4c11.1,0,21.3-0.2,30.7-0.7c9.4-0.5,16.4-0.9,20.9-1.3l12.4,19.7c0,1.4-1.2,2.7-3.5,3.9
			c-2.4,1.2-6.5,2.3-12.3,3.2c-5.9,0.9-14.2,1.3-25,1.3H384z M388.6,81.6h39.8v-2.9c0-2.8-0.2-4.7-0.7-5.8c-0.5-1.1-2-1.8-4.5-2.1
			c-2.5-0.3-6.7-0.4-12.6-0.4h-12c-6.6,0-9.9,2.8-9.9,8.3V81.6z"/>
		<path class="st0" d="M521.4,137.2c-9.1,0-16.1-1.3-21-3.9c-4.9-2.6-8.3-6.2-10.1-10.9c-1.8-4.6-2.7-10-2.7-16.1V75
			c0-5.5,0.9-10.6,2.8-15.2c1.9-4.6,5.2-8.4,10.1-11.2c4.8-2.8,11.8-4.2,20.9-4.2h26.5c15.9,0,27.6,0.7,35,2.1
			c7.5,1.4,11.7,2.8,12.6,4.1l-6.2,22c-2.9-0.3-8.2-0.7-15.7-1.2c-7.6-0.6-16-0.8-25.1-0.8h-12.6c-3.6,0-6.1,0.7-7.7,2.1
			c-1.5,1.4-2.3,3.5-2.3,6.2v24c0,2.8,0.7,4.8,2.1,6.2c1.4,1.4,4,2.1,7.9,2.1h10.6c10.2,0,19-0.2,26.4-0.7
			c7.4-0.5,12.8-0.9,16.3-1.3l12.4,19.7c0,1.9-3.4,3.8-10.3,5.7c-6.8,1.9-17,2.8-30.6,2.8H521.4z"/>
		<path class="st0" d="M652.2,137.2c-10.5,0-17.7-2.2-21.6-6.6c-3.9-4.4-5.8-11.1-5.8-19.9V70.5h-17V44.3h8.7c2.3,0,4.2-0.4,5.7-1.3
			c1.5-0.9,2.4-2.5,2.8-4.9l3.9-22.2h34v28.4h34.6v26.1h-34.6v32.1c0,3.5,0.8,5.7,2.5,6.8c1.7,1.1,4.1,1.7,7.5,1.7h20.7l4.1,24
			c-2.9,0.4-7.3,0.9-13.3,1.3c-5.9,0.5-12.4,0.7-19.5,0.7H652.2z"/>
		<path class="st0" d="M766.1,137.2V31.9l-2.1-16.6h50.2l36.5,72.5L888,15.3h47.5v121.9h-39.6V67.4h-2.3l-8.7,22.4l-15.1,35H832
			l-15.8-35l-8.5-22.4h-2.1v69.8H766.1z"/>
		<path class="st0" d="M995.3,137.2c-12.2,0-20.9-2.3-26.1-6.8c-5.3-4.6-7.9-12.2-7.9-22.8c0-9.8,2.7-16.9,8.2-21.3
			c5.5-4.4,14.1-6.6,25.8-6.6h6.4c7.7,0,15.1,0.3,22.2,0.8c7,0.6,13.1,1.1,18.2,1.7v-3.3c0-1.9-0.4-3.8-1.2-5.6
			c-0.8-1.8-3.7-2.7-8.7-2.7h-10.4c-15.1,0-26.7,0.2-34.8,0.7c-8.2,0.5-13.2,0.9-15.1,1.3l-2.3-22c0-1.4,2.4-2.5,7.3-3.4
			c4.8-0.9,11.5-1.6,19.9-2.1c8.4-0.5,18-0.7,28.8-0.7h20.7c9.1,0,16.1,1.3,20.9,4c4.8,2.7,8.2,6.3,9.9,10.9
			c1.8,4.6,2.7,9.8,2.7,15.7v62.2h-29.4l-8.1-4.1c-3.3,0.7-8.6,1.6-15.9,2.6c-7.3,1-15.6,1.6-25,1.6H995.3z M1007.4,112.7h28.6
			c3,0,4.8-0.3,5.4-0.8c0.6-0.6,0.8-2.3,0.8-5.2v-7.3h-34.8c-2.6,0-4.6,0.5-5.8,1.5c-1.2,1-1.9,2.8-1.9,5.6c0,2.6,0.6,4.3,1.9,5.1
			C1002.8,112.4,1004.7,112.7,1007.4,112.7z"/>
		<path class="st0" d="M1139.8,137.2c-10.5,0-17.7-2.2-21.6-6.6c-3.9-4.4-5.8-11.1-5.8-19.9V70.5h-17V44.3h8.7
			c2.3,0,4.2-0.4,5.7-1.3c1.5-0.9,2.4-2.5,2.8-4.9l3.9-22.2h34v28.4h34.6v26.1h-34.6v32.1c0,3.5,0.8,5.7,2.5,6.8
			c1.7,1.1,4.1,1.7,7.5,1.7h20.7l4.1,24c-2.9,0.4-7.3,0.9-13.3,1.3c-5.9,0.5-12.4,0.7-19.5,0.7H1139.8z"/>
		<path class="st0" d="M1233.7,137.2c-9.1,0-16.1-1.3-21-3.9c-4.9-2.6-8.3-6.2-10.1-10.9c-1.8-4.6-2.7-10-2.7-16.1V75
			c0-5.5,0.9-10.6,2.8-15.2c1.9-4.6,5.2-8.4,10.1-11.2c4.8-2.8,11.8-4.2,20.9-4.2h26.5c15.9,0,27.6,0.7,35,2.1
			c7.5,1.4,11.7,2.8,12.6,4.1l-6.2,22c-2.9-0.3-8.2-0.7-15.8-1.2c-7.6-0.6-16-0.8-25.1-0.8h-12.6c-3.6,0-6.1,0.7-7.7,2.1
			c-1.5,1.4-2.3,3.5-2.3,6.2v24c0,2.8,0.7,4.8,2.1,6.2c1.4,1.4,4,2.1,7.9,2.1h10.6c10.2,0,19-0.2,26.4-0.7
			c7.4-0.5,12.8-0.9,16.3-1.3l12.4,19.7c0,1.9-3.4,3.8-10.3,5.7c-6.8,1.9-17,2.8-30.6,2.8H1233.7z"/>
		<path class="st0" d="M1328.4,137.2V2.9h38.3v45.6c5.9-1.1,13-2.1,21.1-2.9c8.2-0.8,15.8-1.2,23-1.2h10.4c6.9,0,12.2,1,16,2.9
			c3.7,1.9,6.4,4.4,8,7.3c1.6,2.9,2.6,5.8,2.9,8.8c0.3,3,0.5,5.5,0.5,7.6v66.3h-37.9V78.7c0-5.5-3.3-8.3-9.9-8.3h-27.8
			c-2.6,0-4.3,0.2-5.1,0.7c-0.8,0.5-1.1,1.8-1.1,3.8v62.2H1328.4z"/>
		<path class="st0" d="M1522.1,137.2V15.3h40v46.4h64.4V15.3h39.8v121.9h-39.8V89.9h-64.4v47.3H1522.1z"/>
		<path class="st0" d="M1716.3,35.4c-14,0-20.9-5.9-20.9-17.8c0-6.6,1.8-11.2,5.3-13.8c3.5-2.6,8.7-3.8,15.6-3.8
			c7.3,0,12.7,1.3,16.1,3.8c3.4,2.6,5.1,7.1,5.1,13.8C1737.4,29.5,1730.4,35.4,1716.3,35.4z M1697.2,137.2V44.3h37.7v92.8H1697.2z"
			/>
		<path class="st0" d="M1785.7,137.2c-9.3,0-15.8-0.5-19.7-1.5c-3.9-1-5.8-1.9-5.8-2.9l8.3-21.8c1.7,0.4,6.6,0.9,14.8,1.3
			c8.2,0.5,20.2,0.7,36,0.7h14.7c3.5,0,5.6-0.4,6.5-1.1c0.9-0.8,1.3-2.1,1.3-4c0-2.3-0.5-3.8-1.6-4.5c-1-0.6-3.1-0.9-6.3-0.9h-42.1
			c-10.1,0-17.9-1.9-23.4-5.7c-5.5-3.8-8.3-10.6-8.3-20.4v-4.1c0-5.1,0.7-9.8,2.1-14c1.4-4.2,4.4-7.6,8.9-10.2
			c4.6-2.6,11.5-3.8,20.7-3.8h61.3c8.3,0,14.2,0.5,17.6,1.5c3.5,1,5.2,1.9,5.2,2.9l-2.1,22c-2.2-0.4-7.8-0.9-16.7-1.3
			c-8.9-0.5-21.2-0.7-36.8-0.7h-14.7c-3.5,0-5.6,0.4-6.5,1.1c-0.9,0.8-1.3,2-1.3,3.8c0,1.8,0.4,3.1,1.3,3.8c0.9,0.8,3.1,1.1,6.5,1.1
			h42.9c10.8,0,18.7,2.4,23.8,7c5.1,4.7,7.7,11.3,7.7,19.7v3.9c0,5-0.6,9.6-1.9,13.8c-1.2,4.2-4.1,7.6-8.5,10.3
			c-4.4,2.6-11.5,3.9-21.1,3.9H1785.7z"/>
		<path class="st0" d="M1939.1,137.2c-10.5,0-17.7-2.2-21.6-6.6c-3.9-4.4-5.8-11.1-5.8-19.9V70.5h-17V44.3h8.7
			c2.3,0,4.2-0.4,5.7-1.3c1.5-0.9,2.4-2.5,2.8-4.9l3.9-22.2h34v28.4h34.6v26.1h-34.6v32.1c0,3.5,0.8,5.7,2.5,6.8
			c1.7,1.1,4.1,1.7,7.5,1.7h20.7l4.1,24c-2.9,0.4-7.3,0.9-13.3,1.3c-5.9,0.5-12.4,0.7-19.5,0.7H1939.1z"/>
		<path class="st0" d="M2028.1,75c-0.2,0.1-0.4,0.4-0.5,0.6c-0.3,0.8-0.6,1.7-0.9,2.5c0.6-1.2,1.2-2.3,1.9-3.4
			C2028.4,74.8,2028.3,74.9,2028.1,75z M2066.9,124.7c0.3,0.1,0.7,0.3,1,0.4c0.1,0.1,0.4,0,0.6-0.1c1.7-0.6,3.4-1.2,5.1-1.9
			C2071.5,123.8,2069.2,124.4,2066.9,124.7z"/>
		<path class="st1" d="M2085.3,101c-2.5,5.4-5,10.8-7.5,16.2c-0.8,1.7-1.6,3.3-2.3,5c-0.1,0.2-0.3,0.4-0.6,0.5
			c-0.4,0.1-0.8,0.3-1.2,0.4c-2.1,0.7-4.4,1.2-6.7,1.5c-1.1-0.5-2.2-1-3.4-1.6c1.2-0.6,2.3-1.1,3.4-1.6c1.1-0.5,2.3-1.1,3.4-1.6
			c0.5-0.2,0.9-0.6,1.1-1.1c1.2-2.6,2.5-5.3,3.7-8c2.2-4.8,4.5-9.6,6.7-14.4c0.2-0.3,0.3-0.6,0.4-0.9c0.1-0.2,0.2-0.4,0.4-0.8
			c0.9,2,1.8,3.9,2.6,5.7C2085.4,100.6,2085.3,100.9,2085.3,101z"/>
		<path class="st1" d="M2093.8,99.7c-0.7,2.1-1.5,4.1-2.2,6.2c-0.1,0.4-0.3,0.6-0.7,0.8c-1.8,0.8-3.5,1.6-5.3,2.5
			c-0.1,0.1-0.3,0.1-0.6,0.2c0.6-1.3,1.2-2.5,1.7-3.7c0.6-1.3,1.2-2.6,1.8-3.9c0.3-0.7,0.3-1.3,0-2c-2.3-4.9-4.5-9.8-6.8-14.7
			c-0.9-1.9-1.8-3.8-2.6-5.7c-0.1-0.2-0.2-0.4-0.3-0.7c0.7,0.3,1.2,0.5,1.8,0.8c0.4,0.2,0.8,0.4,1.2,0.6c1.2,0.5,2.4,1.1,3.5,1.6
			c0.3,0.2,0.6,0.5,0.7,0.7c2.6,5.5,5.2,11,7.7,16.5C2093.9,99.1,2093.9,99.4,2093.8,99.7z"/>
		<path class="st1" d="M2078.1,65.1c0,0,0,0.1-0.1,0.1l-1.7-0.8c-1.9-0.9-3.9-1.8-5.8-2.7c-0.7-0.3-1.4-0.3-2.1,0
			c-3.2,1.5-6.3,2.9-9.5,4.5c-0.4,0.2-0.9,0.6-1.1,1c-0.5,1.1-1.1,2.2-1.6,3.3c-4.5,9.3-8.9,18.6-13.4,27.9
			c-0.2,0.3-0.3,0.7-0.6,1.1c-0.4-1-0.9-1.8-1.3-2.7c-0.8-1.8-1.7-3.6-2.5-5.4c-0.2-0.5-0.2-0.8,0-1.2c3.1-6.6,6.1-13.1,9.2-19.7
			c0.8-1.7,1.6-3.4,2.4-5.1c0.3-0.6,0.7-1,1.3-1.3c4.1-1.9,8.2-3.8,12.3-5.7c1.3-0.6,2.5-1.2,3.8-1.8c0.3-0.1,0.7-0.2,1,0
			c2.1,0.7,4.2,1.5,6.3,2.3c0.2,0.1,0.4,0.2,0.5,0.4c0.3,0.6,0.6,1.3,0.9,1.9C2076.9,62.4,2077.5,63.8,2078.1,65.1z"/>
		<path class="st1" d="M2055.6,58.5c-0.1,0.1-0.3,0.1-0.4,0.2c-1.2,0.6-2.3,1.1-3.4,1.6c-1,0.4-1.9,0.9-2.9,1.3
			c-0.6,0.2-1,0.7-1.2,1.2c-1.2,2.7-2.5,5.3-3.7,8c-0.8,1.8-1.7,3.5-2.5,5.3c-1.3,2.7-2.5,5.4-3.8,8.1c-0.3,0.7-0.6,1.3-0.9,2
			c-0.1,0.2-0.1,0.3-0.3,0.5c-0.1-0.3-0.2-0.4-0.3-0.6c-0.8-1.6-1.5-3.2-2.3-4.8c-0.2-0.3-0.1-0.6,0-0.9c2.8-5.9,5.5-11.8,8.2-17.6
			c0.5-1.1,1.1-2.3,1.6-3.4c0.1-0.2,0.4-0.5,0.6-0.6c2.1-0.8,4.2-1.6,6.4-2.3c0.2-0.1,0.4-0.1,0.6,0
			C2052.7,57.1,2054.1,57.7,2055.6,58.5z"/>
		<path class="st1" d="M2040.3,103c-0.9-0.4-1.7-0.8-2.5-1.1c0,0,0,0-0.1,0c-1.3-0.6-2.7-1.2-4-1.9c-0.2-0.1-0.5-0.3-0.6-0.6
			c-2.6-5.5-5.1-11-7.7-16.4c-0.2-0.4-0.2-0.8-0.1-1.2c0.5-1.2,0.9-2.4,1.3-3.6c0.6-1.2,1.2-2.3,1.9-3.4c1.7-0.8,3.4-1.6,5.2-2.4
			c0.1,0,0.1,0,0.3-0.1c-0.1,0.2-0.2,0.4-0.2,0.6c-1.1,2.3-2.1,4.7-3.3,7c-0.4,0.8-0.4,1.4,0,2.2c2.4,5.2,4.8,10.3,7.2,15.5
			c0.8,1.6,1.5,3.3,2.3,4.9C2040.1,102.5,2040.1,102.7,2040.3,103z"/>
		<path class="st1" d="M2055.6,113.9c-1.6,0.7-3.1,1.4-4.5,2.1c-1,0.5-1.8,0.5-2.8,0c-6.6-3.2-13.3-6.2-20-9.3
			c-0.4-0.2-0.6-0.4-0.7-0.8c-0.7-2.1-1.5-4.2-2.3-6.3c-0.1-0.2-0.1-0.4,0-0.5c0.6-1.4,1.3-2.8,2-4.3c0.1,0.3,0.2,0.4,0.3,0.6
			c0.9,2,1.9,4,2.8,6.1c0.3,0.6,0.7,1,1.3,1.3c2.1,1,4.2,2,6.3,3c3.9,1.8,7.8,3.6,11.7,5.4c1.8,0.8,3.6,1.7,5.4,2.5
			C2055.3,113.7,2055.4,113.7,2055.6,113.9z"/>
		<path class="st0" d="M2142.8,137.2V44.3h29.4l7.9,4.1c6.4-4.1,14.8-6.2,25.3-6.2c6.9,0,13,0.7,18.2,2.2c5.2,1.5,9.5,3,12.7,4.7
			c3.2,1.7,5.3,2.8,6.1,3.5l-10.4,26.9c-1.4-1-4-2.3-7.8-3.9c-3.8-1.7-8.3-3.2-13.4-4.7c-5.1-1.5-10.5-2.2-16.2-2.2h-2.3
			c-3.9,0-6.8,0.7-8.9,2c-2.1,1.3-3.1,4.2-3.1,8.6v57.8H2142.8z"/>
		<path class="st0" d="M2269.8,177.8c-7.6,0-14.5-0.7-20.7-2.2c-6.2-1.5-10.5-2.9-12.8-4.2l8.3-25.5c4.1,1.8,8.6,3.2,13.4,4.1
			c4.8,1,9.3,1.5,13.6,1.5h2.3c12,0,20.7-4.8,26.1-14.3h-12.6l-40.6-92.8h41.7l17.8,55.1l3.1,12.6h2.1l3.1-12.6l18-55.1h41
			l-3.3,12.6c-2.6,5.4-5.6,11.6-9,18.5c-3.4,7-6.9,14.2-10.5,21.7c-3.6,7.5-7.1,14.6-10.5,21.6c-3.4,6.9-6.4,13.1-9,18.4
			c-6.8,13.8-14.6,24-23.4,30.7c-8.8,6.6-19.6,9.9-32.3,9.9H2269.8z"/>
	</g>
</g>
<g class="st2">
	<path class="st3" d="M2080.1,92.5c-2.9,6.2-5.8,12.4-8.7,18.6c-0.9,1.9-1.7,3.7-2.6,5.5c-0.1,0.3-0.4,0.5-0.6,0.6
		c-5.1,2.4-10.1,4.7-15.2,7.1c-0.5,0.2-1,0.5-1.5,0.7c-0.2,0.1-0.5,0.1-0.8,0c-2.1-0.8-4.2-1.5-6.4-2.3c-0.2-0.1-0.4-0.2-0.5-0.3
		c-0.2-0.4-0.4-0.8-0.6-1.2c-0.7-1.6-1.5-3.2-2.2-4.8c0.3,0.1,0.4,0.2,0.6,0.2c2.4,1.1,4.8,2.2,7.2,3.4c0.6,0.3,1.1,0.3,1.7,0
		c3.2-1.5,6.4-3,9.6-4.5c0.6-0.3,0.9-0.8,1.2-1.4c0.4-1,0.9-2,1.3-2.9c1-2.2,2-4.3,3-6.5c3.5-7.6,7-15.3,10.4-22.9
		c0.1-0.1,0.1-0.3,0.3-0.5c1.3,2.7,2.4,5.4,3.8,8C2080.7,90.3,2080.6,91.3,2080.1,92.5z"/>
	<path class="st3" d="M2078.1,65.1c0,0,0,0.1-0.1,0.1l-1.7-0.8c-1.9-0.9-3.9-1.8-5.8-2.7c-0.7-0.3-1.4-0.3-2.1,0
		c-3.2,1.5-6.3,2.9-9.5,4.5c-0.4,0.2-0.9,0.6-1.1,1c-0.5,1.1-1.1,2.2-1.6,3.3c-4.5,9.3-8.9,18.6-13.4,27.9c-0.2,0.3-0.3,0.7-0.6,1.1
		c-0.4-1-0.9-1.8-1.3-2.7c-0.8-1.8-1.7-3.6-2.5-5.4c-0.2-0.5-0.2-0.8,0-1.2c3.1-6.6,6.1-13.1,9.2-19.7c0.8-1.7,1.6-3.4,2.4-5.1
		c0.3-0.6,0.7-1,1.3-1.3c4.1-1.9,8.2-3.8,12.3-5.7c1.3-0.6,2.5-1.2,3.8-1.8c0.3-0.1,0.7-0.2,1,0c2.1,0.7,4.2,1.5,6.3,2.3
		c0.2,0.1,0.4,0.2,0.5,0.4c0.3,0.6,0.6,1.3,0.9,1.9C2076.9,62.4,2077.5,63.8,2078.1,65.1z"/>
	<path class="st3" d="M2055.6,113.9c-1.6,0.7-3.1,1.4-4.5,2.1c-1,0.5-1.8,0.5-2.8,0c-6.6-3.2-13.3-6.2-20-9.3
		c-0.4-0.2-0.6-0.4-0.7-0.8c-0.7-2.1-1.5-4.2-2.3-6.3c-0.1-0.2-0.1-0.4,0-0.5c0.6-1.4,1.3-2.8,2-4.3c0.1,0.3,0.2,0.4,0.3,0.6
		c0.9,2,1.9,4,2.8,6.1c0.3,0.6,0.7,1,1.3,1.3c2.1,1,4.2,2,6.3,3c3.9,1.8,7.8,3.6,11.7,5.4c1.8,0.8,3.6,1.7,5.4,2.5
		C2055.3,113.7,2055.4,113.7,2055.6,113.9z"/>
	<path class="st3" d="M2055.6,58.5c-0.1,0.1-0.3,0.1-0.4,0.2c-1.2,0.6-2.3,1.1-3.4,1.6c-1,0.4-1.9,0.9-2.9,1.3
		c-0.6,0.2-1,0.7-1.2,1.2c-1.2,2.7-2.5,5.3-3.7,8c-0.8,1.8-1.7,3.5-2.5,5.3c-1.3,2.7-2.5,5.4-3.8,8.1c-0.3,0.7-0.6,1.3-0.9,2
		c-0.1,0.2-0.1,0.3-0.3,0.5c-0.1-0.3-0.2-0.4-0.3-0.6c-0.8-1.6-1.5-3.2-2.3-4.8c-0.2-0.3-0.1-0.6,0-0.9c2.8-5.9,5.5-11.8,8.2-17.6
		c0.5-1.1,1.1-2.3,1.6-3.4c0.1-0.2,0.4-0.5,0.6-0.6c2.1-0.8,4.2-1.6,6.4-2.3c0.2-0.1,0.4-0.1,0.6,0
		C2052.7,57.1,2054.1,57.7,2055.6,58.5z"/>
	<path class="st3" d="M2093.9,82.5c-0.6,1.4-1.3,2.8-2,4.4c-1.1-2.3-2.1-4.4-3.1-6.6c-0.3-0.7-0.7-1.1-1.4-1.4
		c-1.9-0.9-3.9-1.8-5.9-2.7c-4-1.9-8.1-3.8-12.1-5.6c-1.8-0.8-3.5-1.7-5.3-2.5c-0.2-0.1-0.4-0.2-0.6-0.3c0.9-0.5,1.8-0.8,2.7-1.2
		c1-0.5,1.9-0.9,2.9-1.3c0.2-0.1,0.6-0.1,0.8,0c7,3.2,14,6.5,21,9.8c0.4,0.2,0.6,0.4,0.8,0.8c0.7,2.1,1.5,4.1,2.2,6.2
		C2093.9,82.1,2094,82.3,2093.9,82.5z"/>
	<path class="st3" d="M2085.3,101c-2.5,5.4-5,10.8-7.5,16.2c-0.8,1.7-1.6,3.3-2.3,5c-0.1,0.2-0.3,0.4-0.6,0.5
		c-0.4,0.1-0.8,0.3-1.2,0.4c-1.7,0.6-3.4,1.3-5.1,1.9c-0.2,0.1-0.4,0.2-0.6,0.1c-0.3-0.1-0.7-0.3-1-0.4c-1.1-0.5-2.2-1-3.4-1.6
		c1.2-0.6,2.3-1.1,3.4-1.6c1.1-0.5,2.3-1.1,3.4-1.6c0.5-0.2,0.9-0.6,1.1-1.1c1.2-2.6,2.5-5.3,3.7-8c2.2-4.8,4.5-9.6,6.7-14.4
		c0.2-0.3,0.3-0.6,0.4-0.9c0.1-0.2,0.2-0.4,0.4-0.8c0.9,2,1.8,3.9,2.6,5.7C2085.4,100.6,2085.3,100.9,2085.3,101z"/>
	<path class="st3" d="M2040.3,103c-0.9-0.4-1.7-0.8-2.5-1.1c0,0,0,0-0.1,0c-1.3-0.6-2.7-1.2-4-1.9c-0.2-0.1-0.5-0.3-0.6-0.6
		c-2.6-5.5-5.1-11-7.7-16.4c-0.2-0.4-0.2-0.8-0.1-1.2c0.5-1.2,0.9-2.4,1.3-3.6c0.3-0.8,0.6-1.7,0.9-2.5c0.1-0.2,0.3-0.5,0.5-0.6
		c0.2-0.1,0.3-0.2,0.5-0.2c1.7-0.8,3.4-1.6,5.2-2.4c0.1,0,0.1,0,0.3-0.1c-0.1,0.2-0.2,0.4-0.2,0.6c-1.1,2.3-2.1,4.7-3.3,7
		c-0.4,0.8-0.4,1.4,0,2.2c2.4,5.2,4.8,10.3,7.2,15.5c0.8,1.6,1.5,3.3,2.3,4.9C2040.1,102.5,2040.1,102.7,2040.3,103z"/>
	<path class="st3" d="M2093.8,99.7c-0.7,2.1-1.5,4.1-2.2,6.2c-0.1,0.4-0.3,0.6-0.7,0.8c-1.8,0.8-3.5,1.6-5.3,2.5
		c-0.1,0.1-0.3,0.1-0.6,0.2c0.6-1.3,1.2-2.5,1.7-3.7c0.6-1.3,1.2-2.6,1.8-3.9c0.3-0.7,0.3-1.3,0-2c-2.3-4.9-4.5-9.8-6.8-14.7
		c-0.9-1.9-1.8-3.8-2.6-5.7c-0.1-0.2-0.2-0.4-0.3-0.7c0.7,0.3,1.2,0.5,1.8,0.8c0.4,0.2,0.8,0.4,1.2,0.6c1.2,0.5,2.4,1.1,3.5,1.6
		c0.3,0.2,0.6,0.5,0.7,0.7c2.6,5.5,5.2,11,7.7,16.5C2093.9,99.1,2093.9,99.4,2093.8,99.7z"/>
	<path class="st3" d="M2073.9,78.3c-1.2,2.6-2.4,5.2-3.6,7.8c-4.8-2.3-9.7-4.5-14.5-6.8c1.2-2.6,2.5-5.1,3.7-7.8
		C2064.3,73.8,2069.1,76.1,2073.9,78.3z"/>
	<path class="st3" d="M2063.4,101.3c-1.1,2.4-2.2,4.8-3.3,7.2c-5-2.3-10-4.6-15-7c1.2-2.4,2.3-4.8,3.4-7.2
		C2053.6,96.6,2058.5,98.9,2063.4,101.3z"/>
	<path class="st3" d="M2068.5,90.2c-1.1,2.4-2.2,4.7-3.3,7.2c-4.9-2.3-9.8-4.6-14.7-7c1.1-2.3,2.2-4.6,3.4-7
		C2058.7,85.7,2063.6,87.9,2068.5,90.2z"/>
</g>
</svg>
