<?xml version="1.0" encoding="utf-8"?>
<!-- Generator: Adobe Illustrator 27.2.0, SVG Export Plug-In . SVG Version: 6.00 Build 0)  -->
<svg version="1.1" xmlns="http://www.w3.org/2000/svg" xmlns:xlink="http://www.w3.org/1999/xlink" x="0px" y="0px" width="618.6px"
	 height="633.4px" viewBox="0 0 618.6 633.4" style="enable-background:new 0 0 618.6 633.4;" xml:space="preserve">
<style type="text/css">
	.st0{display:none;}
	.st1{display:inline;fill:#FFB100;}
	.st2{display:inline;fill:#152436;stroke:#152436;stroke-width:3;stroke-miterlimit:10;}
	.st3{display:inline;fill:#0E4286;}
	.st4{display:inline;}
	.st5{fill:#00FF00;}
	.st6{display:inline;fill:#2DA8C9;}
	.st7{fill:#2DA8C9;}
	.st8{fill:#152436;stroke:#152436;stroke-width:3;stroke-miterlimit:10;}
	.st9{display:none;fill:#2DA8C9;}
</style>
<g id="Layer_2" class="st0">
</g>
<g id="Layer_2_xA0_Image_00000132081781886079368100000009468725902893476233_">
	<g>
		<path class="st7" d="M525.7,365.2c0-16.6-0.1-33.1-0.1-49.7c0-28.5,0.1-56.9,0.1-85.4c0-2.5-0.9-4.1-3.1-5.5
			c-6.4-3.9-12.7-8-19-12.1c-1.7-1.1-3.2-1.3-5.1-0.3c-9.6,5-19.3,9.9-29,14.8c-3.1,1.6-6.3,3.2-9.4,4.8c-1.4,0.7-2.4,1.5-2.1,3.3
			c0.2,1.1,0.1,2.2,0.1,3.4c-0.1,8.7-0.3,17.4-0.3,26c-0.1,12.3-0.1,24.6-0.1,36.9c0,16.8,0.1,33.6,0,50.4
			c-0.1,22.9-0.4,45.7-0.5,68.6c0,1.7-0.5,2.5-2,3.3c-9.7,4.8-19.3,9.6-28.9,14.4c-6.9,3.4-13.9,6.8-20.8,10.2
			c-4.3,2.1-8.5,4.3-12.8,6.5c-6.8,3.4-13.6,6.8-20.4,10.1c-2.6,1.3-5.2,2.6-7.9,3.9c-0.1-0.5-0.2-0.7-0.2-0.9
			c-0.1-9.7-0.3-19.5-0.4-29.2c-0.1-6.8,0.1-13.6,0.1-20.4c0-8.2,0-16.5,0-24.7c-0.1-7.6-0.2-15.2-0.2-22.8c0-3.6,0.2-7.2,0.2-10.8
			c0-15.7-0.1-31.3-0.2-47c0-6-0.1-5.9-5.6-8.2c-6.6-2.7-13.2-5.6-19.7-8.5c-0.7-0.3-1.3-0.5-1.9-0.6c-1-0.1-2,0.1-3,0.6
			c-8.7,4.5-17.5,8.8-26.3,13.2c-1.6,0.8-3.1,1.6-4.7,2.4c0,0.7,0,1.2,0,1.8c0,31.5-0.1,63-0.1,94.5c0,38.7,0.1,77.4,0.1,116.1
			c0,7.7-0.1,15.3-0.2,23c0,1.4,0.3,2.4,1.7,3.1c6.1,2.9,12.2,6,18.3,8.9c2.1,1,4.1,1.1,6.2-0.1c2.4-1.4,5-2.5,7.5-3.7
			c10.3-5.2,20.5-10.3,30.8-15.5c11-5.5,21.9-11.1,32.9-16.5c11.1-5.5,22.2-10.9,33.3-16.4c10.1-5.1,20.2-10.3,30.3-15.3
			c17.4-8.7,34.8-17.4,52.2-26.1c2.5-1.2,4.9-2.7,7.3-4c2.1-1.1,2.8-2.7,2.8-5C525.7,426.2,525.7,395.7,525.7,365.2z M327.2,295.9
			c18.2-9.3,36.4-18.5,54.6-27.8c17.1-8.7,34.2-17.4,51.3-26c10.3-5.2,20.6-10.5,30.9-15.7c12.1-6.1,24.2-12.3,36.3-18.4
			c1.1-0.5,1.5-1.2,1.5-2.4c0-6.8,0-13.6,0-20.4c0-2.1-0.8-3.6-2.7-4.7c-5.1-2.9-10.1-5.9-15.1-8.9c-11.8-7-23.6-14.1-35.4-21.1
			c-8-4.8-15.9-9.5-23.8-14.3c-11.9-7.1-23.7-14.2-35.5-21.3c-1.9-1.2-3.6-1.2-5.6-0.2c-6.5,3.4-13.1,6.7-19.6,10.1
			c-20.8,10.6-41.6,21.3-62.5,31.9c-16,8.1-32,16.2-48.1,24.3c-5.3,2.7-10.5,5.5-15.7,8.2c-2.7,1.4-5.4,2.7-8.1,4
			c-3.8-2.3-7.5-4.5-11.5-6.9c3.5-1.8,6.7-3.4,9.8-5c12.8-6.6,25.7-13.2,38.6-19.8c15.3-7.8,30.6-15.6,45.9-23.3
			c12.7-6.5,25.4-13,38.2-19.4c2.5-1.2,3.6-2.8,3.5-5.6c-0.1-5.5-0.1-11-0.1-16.5c0-1.8-0.8-3-2.3-3.9c-2-1.1-4-2.3-6-3.6
			c-8.3-5.1-16.7-10.1-25-15.2c-1.9-1.1-3.7-1.3-5.7-0.2c-2.7,1.5-5.5,2.9-8.3,4.3c-10,5.1-20.1,10.1-30.1,15.2
			c-11.9,6-23.9,11.9-35.8,17.9c-14.3,7.2-28.7,14.5-43,21.7c-12.5,6.3-25,12.8-37.6,19.1c-13.8,7-27.7,13.9-41.6,20.8
			c-1,0.5-1.6,1.3-1.7,2.4c-0.1,0.9-0.1,1.8-0.1,2.6c0.1,6.1,0.2,12.2,0.2,18.2c0,1.7,0.6,2.5,2,3.4c6.3,3.7,12.5,7.5,18.7,11.2
			c14.4,8.6,28.8,17.2,43.2,25.9c14.7,8.8,29.3,17.5,44,26.4c1.2,0.8,2.2,0.8,3.5,0.1c5.1-2.7,10.2-5.4,15.3-8
			c19.2-9.8,38.5-19.5,57.7-29.2c8.7-4.4,17.3-8.9,26-13.3c10.8-5.5,21.6-11,32.4-16.5c6.8-3.5,13.7-6.9,20.6-10.4
			c4,2.4,8,4.9,12.2,7.5c-0.9,0.5-1.4,0.9-1.9,1.2c-2.7,1.4-5.4,2.8-8.1,4.1c-14.8,7.5-29.6,15-44.5,22.5
			c-8.8,4.4-17.6,8.8-26.3,13.2c-7,3.5-13.9,7.2-20.9,10.7c-9.1,4.6-18.2,9.2-27.4,13.7c-1.6,0.8-2.3,2-2.3,3.8
			c0,6.7,0,13.4-0.1,20.2c0,1.4,0.4,2.3,1.7,3.1c12.4,7.4,24.8,14.8,37.2,22.3c1.2,0.8,2.2,0.8,3.5,0.1
			C311.6,303.9,319.4,299.9,327.2,295.9z M158.7,303.2c5,3,10,6,15,9c8.6,5.1,17.1,10.2,25.7,15.4c6.8,4.1,13.5,8.2,20.3,12.2
			c8.3,5,16.7,10,25.1,15c10.1,6.1,20.3,12.1,30.4,18.3c1.6,1,3.1,1.1,4.7,0.2c4.8-2.5,9.7-4.8,14.6-7.3c1.7-0.9,3.4-1.8,4.9-2.6
			c0.1-0.3,0.1-0.4,0.1-0.5c0.1-16.6,0.1-33.3,0.2-49.9c0-1.2-0.5-1.8-1.5-2.4c-10.1-5.9-20.3-11.8-30.4-17.7
			c-9.6-5.7-19.2-11.4-28.8-17.2c-12.1-7.3-24.1-14.7-36.2-22c-8.5-5.2-17.1-10.2-25.7-15.4c-8.6-5.1-17-10.4-25.6-15.5
			c-11-6.6-22.1-13.2-33.1-19.8c-1.4-0.8-2.6-1-4-0.2c-2.3,1.1-4.6,2.2-6.9,3.3c-3.8,1.8-7.7,3.6-11.5,5.4c-1.8,0.8-2.9,1.9-2.8,4.2
			c0.2,3.7-0.1,7.3-0.1,11c0,7.1,0.1,14.2,0.1,21.4c-0.1,10.4-0.3,20.8-0.3,31.1c0,29.4,0.1,58.9,0.1,88.3c0,17.4-0.1,34.8-0.1,52.2
			c0,9,0,18.1,0,27.1c0,2,0.7,3.4,2.5,4.5c6.1,3.6,12.2,7.3,18.3,10.9c9.3,5.6,18.6,11.2,27.9,16.8c12.3,7.4,24.6,14.8,37,22.1
			c9,5.4,18.1,10.8,27.1,16.2c10.5,6.3,20.9,12.6,31.4,18.9c7.1,4.3,14.2,8.6,21.3,12.8c5.6,3.4,11.2,6.7,16.9,10.1
			c1.2,0.7,2.4,1,3.8,0.4c5-2.3,10.1-4.4,15.1-6.6c1.7-0.7,3.3-1.5,5.1-2.3c0-48.8,0.1-97.6,0.1-146.3c-3-1.8-5.9-3.5-8.7-5.3
			c-4.6-2.8-9-5.8-13.6-8.5c-4.4-2.7-9-5.2-13.4-7.8c-9-5.4-17.9-10.8-26.9-16.2c-8.7-5.2-17.4-10.5-26.1-15.7
			c-6.2-3.7-12.3-7.4-18.5-11.1c-2-1.2-3.9-1.3-5.9-0.3c-6.2,3-12.5,6-18.7,9.1c-1.6,0.8-2.5,1.9-2.4,3.9c0.2,5.4,0.1,10.7,0.1,16.1
			c0,9.7,0.1,19.4,0.1,29c0,1.9,0.6,3.3,2.4,4.3c2,1.1,4,2.4,6,3.5c8.7,5,17.4,10.1,26.1,15.1c8.8,5.1,17.5,10.2,26.2,15.4
			c4,2.3,8,4.6,11.8,6.9c0,6.4,0.1,12.5,0.1,19.1c-28.1-17.2-56.1-33.8-83.6-51.1c0-36.6,0.1-72.9,0.1-109.7
			C156.2,301.8,157.5,302.5,158.7,303.2z"/>
		<path class="st8" d="M534.7,358.3c0.4-42.8-0.1-85.6-0.3-128.4c0-5.5-2.2-9.9-7-12.9c-4.8-3.1-9.5-6.3-14.3-9.3
			c-1.7-1-2.4-2.3-2.3-4.3c0.1-6.1,0.1-12.2-0.1-18.2c-0.1-3.7-1.1-7.2-4.1-9.8c-1.6-1.4-3.4-2.6-5.2-3.7
			c-5.7-3.5-11.5-6.9-17.2-10.4c-4.6-2.8-9.2-5.5-13.8-8.3c-5.3-3.2-10.7-6.4-16.1-9.6c-4.8-2.8-9.6-5.6-14.3-8.4
			c-6-3.6-12.1-7.2-18.1-10.8c-6.6-3.9-13.1-7.9-19.7-11.8c-3.1-1.8-6.1-3.7-9.2-5.3c-3.7-1.9-7.5-2.5-11.4-0.8
			c-1.6,0.7-3.2,1.3-4.8,2.1c-3.7,1.9-7.4,3.9-11.2,5.8c-0.7,0.4-1.5,0.5-2.3,0.8c-0.2-0.4-0.3-0.6-0.3-0.7
			c-0.1-6.2,0.3-12.4-0.4-18.6c-0.5-4.5-2.6-7.8-6.1-10.3c-3-2.1-6.4-3.8-9.5-5.8c-5.3-3.2-10.5-6.4-15.8-9.6
			c-3.2-1.9-6.2-4.1-9.9-5c-1.4-0.3-2.8-0.8-4.2-0.7c-1.8,0.2-3.6,0.8-5.2,1.5c-3.3,1.5-6.5,3.2-9.7,4.9
			c-9.7,4.9-19.5,9.8-29.2,14.7c-5.2,2.6-10.5,5.1-15.7,7.8c-9.5,4.8-19,9.5-28.5,14.3c-5.1,2.6-10.2,5.1-15.3,7.7
			c-21.6,10.9-43.2,21.8-64.8,32.7c-11.5,5.8-23,11.8-34.5,17.7c-2.2,1.2-3.7,3.1-4.8,5.4c-1,2.3-1.4,4.7-1.4,7.1
			c0.1,4.7,0,9.4,0.1,14.1c0,1.6-0.5,2.7-2.2,3.5c-4.8,2.1-9.3,4.6-14,7c-4.8,2.5-7.2,6.7-7.7,11.8c-0.5,4.7-0.5,9.4-0.5,14.1
			c0,24,0.1,48,0.2,72c0,1.3-0.3,2.7-0.4,4c0,1.3,0.2,2.5,0.2,3.8c0.1,1,0.2,1.9,0.1,2.8c-0.1,1.3-0.4,2.5-0.4,3.8
			c0.1,36.4,0.2,72.8,0.3,109.2c0,4.4,0.1,8.7-0.3,13.1c-0.4,3.9,0.2,7.9,0.5,11.9c0.1,1.1,0.6,2.3,1.1,3.4c1.4,3.4,4.2,5.6,7.3,7.5
			c4.6,2.7,9.1,5.4,13.6,8.1c5.7,3.4,11.4,6.8,17.1,10.2c5.2,3.1,10.3,6.2,15.5,9.2c5.7,3.4,11.4,6.8,17.1,10.2
			c5.1,3.1,10.3,6.1,15.5,9.2c4.1,2.5,8.2,5,12.4,7.5c5.2,3.1,10.3,6.1,15.5,9.2c6.3,3.8,12.5,7.6,18.8,11.4
			c5.2,3.1,10.4,6.2,15.6,9.4c5.6,3.3,11.1,6.6,16.7,10c6.2,3.7,12.3,7.4,18.5,11.1c4.1,2.5,8.5,3.7,13.2,2.1c2.8-1,5.5-2.4,8.3-3.5
			c3.4-1.4,6.8-2.8,10.3-4.2c0.7-0.3,1.6-0.4,2.2-0.2c1.5,0.5,2.9,1.2,4.3,1.9c4.1,2,8.2,4.2,12.4,6c1.8,0.8,3.8,1.1,5.7,1.3
			c3,0.3,5.8-0.9,8.4-2.2c14.5-7.2,29-14.6,43.5-21.9c3.4-1.7,7-3.3,10.4-5c4.5-2.2,9-4.5,13.4-6.8c12.5-6.2,25-12.4,37.5-18.7
			c20.1-10.1,40.3-20.1,60.4-30.2c8.1-4.1,16.3-8.2,24.4-12.3c2.7-1.4,5.4-3,7.6-5.2c3-3.1,3.8-7.1,3.8-11.2
			C534.9,423,534.4,390.7,534.7,358.3z M304.2,550.5c-1.4-0.7-1.7-1.6-1.7-3.1c0.1-7.7,0.2-15.4,0.2-23c0-38.7-0.1-77.4-0.1-116.1
			c0-31.5,0.1-63,0.1-94.5v-0.2c0-1,0.6-1.9,1.5-2.4c1.1-0.6,2.1-1.1,3.2-1.7c8.8-4.4,17.6-8.8,26.3-13.2c1.1-0.5,2-0.7,3-0.6
			c0.6,0.1,1.2,0.3,1.9,0.6c6.5,3,13.1,5.8,19.7,8.5c5.5,2.3,5.5,2.2,5.6,8.2c0.1,15.7,0.1,31.3,0.2,47c0,3.6-0.2,7.2-0.2,10.8
			c0,7.6,0.2,15.2,0.2,22.8c0.1,8.2,0.1,16.5,0,24.7c0,6.8-0.2,13.6-0.1,20.4c0.1,9.7,0.2,19.5,0.4,29.2c0,0.2,0.1,0.4,0.2,0.9
			c2.7-1.3,5.3-2.6,7.9-3.9c6.8-3.4,13.6-6.7,20.4-10.1c4.3-2.1,8.5-4.3,12.8-6.5c6.9-3.4,13.9-6.8,20.8-10.2
			c9.7-4.8,19.3-9.7,28.9-14.4c1.5-0.7,2-1.6,2-3.3c0.1-22.9,0.4-45.7,0.5-68.6c0.1-16.8,0-33.6,0-50.4c0-12.3,0-24.6,0.1-36.9
			c0-8.7,0.2-17.4,0.3-26c0-1.1,0-2.1,0-3.4c0.1-1.7,0.6-2.6,2-3.3c3.1-1.6,6.2-3.2,9.4-4.8c9.7-4.9,19.4-9.8,29-14.8
			c1.9-1,3.4-0.8,5.1,0.3c6.3,4.1,12.6,8.2,19,12.1c2.2,1.3,3.1,3,3.1,5.5c-0.1,28.5-0.1,56.9-0.1,85.4c0,16.6,0.1,33.1,0.1,49.7
			c0,30.5,0,60.9,0,91.4c0,2.4-0.7,4-2.8,5c-2.5,1.3-4.8,2.8-7.3,4c-17.4,8.7-34.8,17.4-52.2,26.1c-10.1,5.1-20.2,10.3-30.3,15.3
			c-11.1,5.5-22.2,10.9-33.3,16.4c-11,5.5-22,11-32.9,16.5c-10.3,5.2-20.5,10.3-30.8,15.5c-2.5,1.3-5.1,2.4-7.5,3.7
			c-2.1,1.2-4.1,1.1-6.2,0.1C316.4,556.5,310.3,553.5,304.2,550.5z M258.5,549c-7.1-4.3-14.2-8.6-21.3-12.8
			c-10.5-6.3-20.9-12.6-31.4-18.9c-9-5.4-18.1-10.8-27.1-16.2c-12.3-7.4-24.7-14.8-37-22.1c-9.3-5.6-18.6-11.2-27.9-16.8
			c-6.1-3.7-12.2-7.3-18.3-10.9c-1.8-1.1-2.5-2.5-2.5-4.5c0-9-0.1-18.1,0-27.1c0-17.4,0.1-34.8,0.1-52.2c0-29.4-0.1-58.8-0.1-88.3
			c0-10.4,0.2-20.8,0.3-31.1c0-7.1-0.1-14.2-0.1-21.4c0.1-11,0,0.2,0.1-11c0-2.3,1-3.4,2.8-4.2c3.8-1.8,7.7-3.6,11.5-5.4
			c2.3-1.1,4.6-2.2,6.9-3.3c1.4-0.7,2.7-0.6,4,0.2c11,6.6,22,13.2,33.1,19.8c8.5,5.2,17,10.4,25.6,15.5c8.6,5.2,17.2,10.2,25.7,15.4
			c12.1,7.3,24.1,14.7,36.2,22c9.6,5.8,19.2,11.5,28.8,17.2c10.1,6,20.2,11.8,30.4,17.7c1,0.6,1.5,1.2,1.5,2.4
			c-0.1,16.6-0.2,33.3-0.2,49.9c0,0.1,0,0.2-0.1,0.5c-1.5,0.8-3.2,1.7-4.9,2.6c-4.9,2.4-9.7,4.8-14.6,7.3c-1.6,0.8-3.1,0.8-4.7-0.2
			c-10.1-6.1-20.2-12.2-30.4-18.3c-8.3-5-16.7-10-25.1-15c-6.8-4-13.5-8.2-20.3-12.2c-8.6-5.1-17.1-10.3-25.7-15.4c-5-3-10-6-15-9
			c-1.2-0.7-2.5-1.4-4.1-2.3c0,36.8-0.1,73.1-0.1,109.7c27.5,17.3,55.5,33.9,83.6,51.1c0-6.6-0.1-12.7-0.1-19.1
			c-3.8-2.2-7.8-4.6-11.8-6.9c-8.8-5.1-17.5-10.2-26.2-15.4c-8.7-5.1-17.4-10.1-26.1-15.1c-2-1.2-3.9-2.5-6-3.5
			c-1.8-1-2.4-2.3-2.4-4.3c0-9.7,0-19.4-0.1-29c0-5.3,0.1-10.7-0.1-16.1c-0.1-2,0.8-3.1,2.4-3.9c6.2-3,12.5-6,18.7-9.1
			c2-1,3.9-0.9,5.9,0.3c6.1,3.7,12.3,7.4,18.5,11.1c8.7,5.2,17.4,10.4,26.1,15.7c9,5.4,17.9,10.8,26.9,16.2c4.4,2.7,9,5.2,13.4,7.8
			c4.6,2.8,9.1,5.7,13.6,8.5c2.8,1.8,5.7,3.5,8.7,5.3c0,48.1-0.1,96.2-0.1,144.4c0,1.2-0.7,2.2-1.8,2.7c-1.2,0.5-2.3,1-3.4,1.5
			c-5.1,2.2-10.1,4.4-15.1,6.6c-1.5,0.7-2.6,0.4-3.8-0.4C269.7,555.7,264.1,552.4,258.5,549z M300.3,307.8
			c-12.4-7.5-24.8-14.9-37.2-22.3c-1.3-0.8-1.7-1.7-1.7-3.1c0.1-6.7,0.1-13.4,0.1-20.2c0-1.8,0.7-3,2.3-3.8
			c9.2-4.5,18.3-9.1,27.4-13.7c7-3.5,13.9-7.2,20.9-10.7c8.8-4.4,17.6-8.8,26.3-13.2c14.8-7.5,29.6-15,44.5-22.5
			c2.7-1.4,5.4-2.8,8.1-4.1c0.5-0.3,1-0.6,1.9-1.2c-4.2-2.6-8.2-5.1-12.2-7.5c-6.9,3.5-13.8,6.9-20.6,10.4
			c-10.8,5.5-21.6,11-32.4,16.5c-8.7,4.4-17.3,8.9-26,13.3c-19.2,9.8-38.5,19.5-57.7,29.2c-5.1,2.6-10.2,5.3-15.3,8
			c-1.3,0.7-2.3,0.6-3.5-0.1c-14.6-8.8-29.3-17.6-44-26.4c-14.4-8.6-28.8-17.2-43.2-25.9c-6.2-3.7-12.4-7.5-18.7-11.2
			c-1.7-1-1.9-2-1.9-4.5c-0.2-6.7,0-8.6-0.1-15.2c0-4.5,0,0,0-4.5c0-1.1,0.7-1.9,1.7-2.4c13.9-6.9,27.7-13.8,41.6-20.8
			c12.5-6.3,25-12.7,37.6-19.1c14.3-7.2,28.6-14.5,43-21.7c11.9-6,23.9-11.9,35.8-17.9c10.1-5.1,20.1-10.1,30.1-15.2
			c2.8-1.4,5.5-2.9,8.3-4.3c2-1.1,3.8-0.9,5.7,0.2c8.3,5.1,16.6,10.1,25,15.2c2,1.2,3.9,2.4,6,3.6c1.6,0.9,2.3,2.1,2.3,3.9
			c0,5.5,0,11,0.1,16.5c0.1,2.8-1.1,4.4-3.5,5.6c-12.8,6.4-25.5,12.9-38.2,19.4c-15.3,7.8-30.6,15.5-45.9,23.3
			c-12.9,6.6-25.7,13.2-38.6,19.8c-3.1,1.6-6.2,3.2-9.8,5c4,2.4,7.7,4.6,11.5,6.9c2.7-1.3,5.4-2.6,8.1-4c5.3-2.7,10.5-5.5,15.7-8.2
			c16-8.1,32.1-16.2,48.1-24.3c20.9-10.6,41.7-21.3,62.5-31.9c6.5-3.3,13.1-6.7,19.6-10.1c2-1,3.7-1,5.6,0.2
			c11.8,7.1,23.7,14.2,35.5,21.3c7.9,4.8,15.9,9.5,23.8,14.3c11.8,7,23.6,14.1,35.4,21.1c5,3,10,6,15.1,8.9c1.9,1.1,2.7,2.5,2.7,4.7
			c0,6.8-0.1,13.6,0,20.4c0,1.2-0.4,1.9-1.5,2.4c-12.1,6.1-24.2,12.2-36.3,18.4c-10.3,5.2-20.6,10.5-30.9,15.7
			c-17.1,8.7-34.2,17.4-51.3,26c-18.2,9.3-36.4,18.5-54.6,27.8c-7.8,4-15.7,7.9-23.4,12C302.5,308.6,301.5,308.6,300.3,307.8z"/>
	</g>
</g>
</svg>
