<?xml version="1.0" encoding="utf-8"?>
<!-- Generator: Adobe Illustrator 27.2.0, SVG Export Plug-In . SVG Version: 6.00 Build 0)  -->
<svg version="1.1" id="Layer_1" xmlns="http://www.w3.org/2000/svg" xmlns:xlink="http://www.w3.org/1999/xlink" x="0px" y="0px"
	 width="1670px" height="131.4px" viewBox="0 0 1670 131.4" style="enable-background:new 0 0 1670 131.4;" xml:space="preserve">
<style type="text/css">
	.st0{fill:#142436;}
</style>
<g>
	<path class="st0" d="M65.7,126.4C32.2,126.4,5,99.1,5,65.7S32.2,5,65.7,5h1538.6c33.5,0,60.7,27.2,60.7,60.7s-27.2,60.7-60.7,60.7
		H65.7z"/>
	<path class="st0" d="M1604.3,10c30.8,0,55.7,24.9,55.7,55.7v0c0,30.8-24.9,55.7-55.7,55.7H65.7C34.9,121.4,10,96.4,10,65.7v0
		C10,34.9,34.9,10,65.7,10H1604.3 M1604.3,0H65.7C29.5,0,0,29.5,0,65.7c0,36.2,29.5,65.7,65.7,65.7h1538.6
		c36.2,0,65.7-29.5,65.7-65.7S1640.5,0,1604.3,0L1604.3,0z"/>
</g>
</svg>
